<svg xmlns="http://www.w3.org/2000/svg" viewBox="0 0 505.05286 88.86804"><defs><style>.cls-1{fill:#0a9748;}.cls-2{fill:#2a2a2c;}.cls-3{fill:#9bcea5;}.cls-4{fill:#49b170;}.cls-5{fill:#5fc5f0;}.cls-6{fill:#1f9dd9;}.cls-7{fill:#3564ac;}</style></defs><g id="Calque_2" data-name="Calque 2"><g id="Calque_1-2" data-name="Calque 1"><path class="cls-1" d="M5.68413,63.04789A5.661,5.661,0,0,1,0,57.44792V6.71856a5.719,5.719,0,0,1,5.68413-5.6,5.69871,5.69871,0,0,1,5.59646,5.6V57.44792A5.64,5.64,0,0,1,5.68413,63.04789Z"/><path class="cls-2" d="M117.95,40.22371c0,15.67431-11.36825,22.996-20.843,22.996-7.49351,0-12.059-4.64969-12.74633-7.32169v1.63756a5.6611,5.6611,0,0,1-5.68764,5.59647,5.79191,5.79191,0,0,1-5.76828-5.59647V6.71856a5.79381,5.79381,0,0,1,5.76828-5.6,5.70179,5.70179,0,0,1,5.6,5.6V22.22105a3.46867,3.46867,0,0,1,.08766.94677v1.46574c1.72172-4.05007,6.6309-7.32169,12.74633-7.32169C106.49412,17.31187,117.95,24.89305,117.95,40.22371Zm-11.28409,0c0-8.78743-5.94362-13.2653-11.62775-13.2653-4.82151,0-11.19643,3.5311-11.19643,13.2653,0,9.7307,6.37492,13.2618,11.19643,13.2618C100.72233,53.48551,106.666,49.0953,106.666,40.22371Z"/><path class="cls-2" d="M169.0546,23.16782V57.53558a5.79268,5.79268,0,0,1-5.77179,5.59647,5.66032,5.66032,0,0,1-5.68413-5.59647V55.898c-.69079,2.672-5.25282,7.32169-12.74633,7.32169-9.47472,0-20.843-7.32169-20.843-22.996,0-15.33066,11.45242-22.91184,20.843-22.91184,6.11543,0,11.02461,3.27162,12.74633,7.32169V23.16782a5.7183,5.7183,0,0,1,5.68413-5.59646A5.8543,5.8543,0,0,1,169.0546,23.16782ZM158.11414,40.22371c0-9.7342-6.37141-13.2653-11.19643-13.2653-5.68413,0-11.62774,4.47787-11.62774,13.2653,0,8.87159,5.94361,13.2618,11.62774,13.2618C151.74273,53.48551,158.11414,49.95441,158.11414,40.22371Z"/><path class="cls-2" d="M217.31183,53.05771c0,2.75615-2.06536,4.13423-3.18746,5.16516a19.16623,19.16623,0,0,1-13.43362,4.825c-10.42148,0-22.996-7.49351-22.996-22.82418,0-15.41833,12.57451-22.91184,22.996-22.91184,5.59647,0,9.81836,1.5499,13.43362,4.73736,1.1221,1.11859,3.18746,2.49667,3.18746,5.25282a4.37053,4.37053,0,0,1-4.56553,4.306,6.9669,6.9669,0,0,1-4.39021-1.80588,10.78922,10.78922,0,0,0-7.23754-2.672c-6.80272,0-12.22736,4.73736-12.22736,13.09348,0,8.26846,5.42464,13.00582,12.22736,13.00582a10.78919,10.78919,0,0,0,7.23754-2.672,6.96679,6.96679,0,0,1,4.39021-1.80938A4.37341,4.37341,0,0,1,217.31183,53.05771Z"/><path class="cls-2" d="M266.25986,58.13871a4.981,4.981,0,0,1-4.99685,4.90918,4.483,4.483,0,0,1-3.44344-1.5499L242.40125,44.35794l-5.16867,4.82152v8.26846a5.64044,5.64044,0,0,1-11.28059,0V6.71856a5.64044,5.64044,0,0,1,11.28059,0v29.1991l17.05589-16.70874a5.47189,5.47189,0,0,1,3.79059-1.63756,5.14826,5.14826,0,0,1,5.081,5.081,5.247,5.247,0,0,1-1.37808,3.61876L249.37929,37.8112l15.41483,16.88056A4.92013,4.92013,0,0,1,266.25986,58.13871Z"/><path class="cls-2" d="M315.292,40.30787c0,15.41833-13.17764,22.91184-22.996,22.91184-9.906,0-22.996-7.49351-22.996-22.91184,0-15.33067,13.09-22.996,22.996-22.996C302.1144,17.31187,315.292,24.9772,315.292,40.30787Zm-34.79556,0c0,8.26846,5.68412,13.09348,11.79956,13.09348,6.02777,0,11.79956-4.825,11.79956-13.09348,0-8.35262-5.77179-13.17764-11.79956-13.17764C286.1806,27.13023,280.49648,31.95525,280.49648,40.30787Z"/><path class="cls-2" d="M354.24988,6.97805a3.98045,3.98045,0,0,1-4.21839,4.04656,13.65673,13.65673,0,0,1-3.61876-.77495,7.261,7.261,0,0,0-2.928-.69079c-4.82151,0-5.42464,3.96241-5.42464,5.68764v2.58082h7.0622a4.27419,4.27419,0,0,1,4.56554,4.48138,4.25033,4.25033,0,0,1-4.56554,4.39021h-7.0622V57.53558a5.64223,5.64223,0,0,1-11.2841,0V26.69892h-2.58433a4.25034,4.25034,0,0,1-4.56554-4.39021,4.2742,4.2742,0,0,1,4.56554-4.48138H326.776V14.64338C326.776,2.58433,336.33488,0,341.84719,0a17.78258,17.78258,0,0,1,9.39056,2.41251C353.219,3.61877,354.24988,5.081,354.24988,6.97805Z"/><path class="cls-2" d="M389.75377,6.97805a3.98046,3.98046,0,0,1-4.21839,4.04656,13.65678,13.65678,0,0,1-3.61877-.77495,7.261,7.261,0,0,0-2.928-.69079c-4.82152,0-5.42464,3.96241-5.42464,5.68764v2.58082h7.0622a4.2742,4.2742,0,0,1,4.56554,4.48138,4.25034,4.25034,0,0,1-4.56554,4.39021H373.564V57.53558a5.64223,5.64223,0,0,1-11.2841,0V26.69892h-2.58434A4.25033,4.25033,0,0,1,355.13,22.30871a4.27419,4.27419,0,0,1,4.56553-4.48138h2.58434V14.64338C362.2799,2.58433,371.83877,0,377.35108,0a17.79171,17.79171,0,0,1,9.39056,2.41251C388.72284,3.61877,389.75377,5.081,389.75377,6.97805Z"/><path class="cls-2" d="M394.947,5.856a5.7295,5.7295,0,0,1,11.45592,0,5.72942,5.72942,0,0,1-11.45592,0Zm11.36825,17.39953V57.36376a5.64343,5.64343,0,1,1-11.28409,0V23.25548a5.6422,5.6422,0,1,1,11.28409,0Z"/><path class="cls-2" d="M454.6426,53.05771c0,2.75615-2.06536,4.13423-3.18746,5.16516a19.16625,19.16625,0,0,1-13.43362,4.825c-10.42149,0-22.996-7.49351-22.996-22.82418,0-15.41833,12.57451-22.91184,22.996-22.91184,5.59646,0,9.81836,1.5499,13.43362,4.73736,1.1221,1.11859,3.18746,2.49667,3.18746,5.25282a4.37053,4.37053,0,0,1-4.56554,4.306,6.967,6.967,0,0,1-4.39021-1.80588,10.7892,10.7892,0,0,0-7.23753-2.672c-6.80272,0-12.22736,4.73736-12.22736,13.09348,0,8.26846,5.42464,13.00582,12.22736,13.00582a10.78916,10.78916,0,0,0,7.23753-2.672,6.96685,6.96685,0,0,1,4.39021-1.80938A4.37342,4.37342,0,0,1,454.6426,53.05771Z"/><path class="cls-2" d="M505.05286,38.41433c0,4.47787-2.49667,6.02777-7.06221,6.02777l-25.58033-.17182c1.03443,6.28725,6.02777,9.64653,12.315,9.64653,3.1033,0,4.56553-.68728,7.14987-1.80938,1.54989-.68728,2.75615-1.37808,4.22189-1.37808a3.70912,3.70912,0,0,1,3.87474,3.87826c0,1.37807-.60312,2.928-2.75615,4.73735a22.1218,22.1218,0,0,1-12.91815,3.70293c-11.45592,0-23.60264-7.06221-23.60264-22.74,0-15.50249,12.834-22.996,22.65236-22.996C493.16914,17.31187,505.05286,25.06487,505.05286,38.41433Zm-32.64254-1.89354h21.53376c-.86261-6.63441-5.68763-9.39056-10.59681-9.39056S473.18527,29.88638,472.41032,36.52079Z"/><path class="cls-3" d="M60.78329,38.84629a.14715.14715,0,0,0-.039.01728c-.01727.00441-.0305.00845-.04337.01286a.171.171,0,0,0-.039.01727c-.01286.00441-.03014.00882-.043.01286a.15836.15836,0,0,0-.039.01728l-.039.01323a.16942.16942,0,0,0-.04337.01727l-.03676.01286a.16458.16458,0,0,0-.039.01727c-.01727.00441-.0305.00882-.04337.01287a.16229.16229,0,0,0-.03675.01727c-.01323.00441-.02609.00882-.04337.01323l-.039.01286a.15836.15836,0,0,1-.039.01728c-.01286.00441-.03013.00845-.043.01286a.14418.14418,0,0,1-.039.01727l-.039.01323a.18718.18718,0,0,1-.04337.01727l-.03859.01287a.17185.17185,0,0,1-.039.01727c-.01727.00441-.0305.00845-.04337.01286a.147.147,0,0,1-.039.01727c-.01286.00441-.03014.00882-.043.01287a.15857.15857,0,0,1-.039.01764l-.039.01286a.18763.18763,0,0,1-.04337.01727l-.03676.01286a.15655.15655,0,0,1-.039.01728c-.01323.00441-.0305.00882-.04337.01286a.13447.13447,0,0,1-.039.01727c-.01286.00441-.02572.00882-.043.01323a.17124.17124,0,0,1-.039.01728l-.039.01286a.17206.17206,0,0,1-.04337.01727l-.03675.01286a.14421.14421,0,0,1-.039.01728c-.01323.00441-.0305.00882-.04337.01323a.15631.15631,0,0,0-.039.01727l-.039.01286c-.01727.00882-.03014.00882-.043.01727l-.039.01287a.36733.36733,0,0,1-.04337.01727l-.03675.01323c-.01324.00845-.0261.00845-.039.01727a.16216.16216,0,0,1-.04337.01286.17073.17073,0,0,0-.039.01728l-.039.01286a.19159.19159,0,0,0-.043.01727l-.039.01323a.13937.13937,0,0,0-.039.01728.41316.41316,0,0,0-.043.01286.147.147,0,0,0-.039.01727c-.01323.00441-.0305.00882-.04337.01286a.17144.17144,0,0,0-.039.01728l-.039.01323a.16164.16164,0,0,0-.043.01727l-.039.01286a.15068.15068,0,0,0-.039.01727c-.01727.00441-.03014.00846-.043.01287a.158.158,0,0,0-.039.01727c-.01323.00441-.0261.00882-.04337.01323a.144.144,0,0,0-.039.01727l-.039.01286a.17576.17576,0,0,0-.043.01728l-.039.01286a.16422.16422,0,0,0-.039.01727l-.043.01323-.039.01287a.13945.13945,0,0,1-.04337.01727l-.039.01286a.14656.14656,0,0,1-.03859.01727c-.01323.00441-.0305.00882-.04337.01287a.13938.13938,0,0,1-.039.01727l-.039.01323a.191.191,0,0,1-.043.01727l-.039.01286a.1507.1507,0,0,1-.039.01728c-.01286.00441-.03014.00882-.04337.01286a.13725.13725,0,0,1-.03675.01727c-.01323.00441-.0261.00882-.04337.01323a.164.164,0,0,1-.039.01727l-.039.01287a.17565.17565,0,0,1-.043.01727l-.039.01286a.13966.13966,0,0,1-.039.01728l-.043.01323a.17165.17165,0,0,1-.039.01727l-.039.01286a.31846.31846,0,0,1-.04337.01727l-.039.01287a.16231.16231,0,0,1-.043.01727l-.039.01323c-.01286.00845-.02609.00845-.039.01727a.15964.15964,0,0,1-.043.01286.15081.15081,0,0,0-.039.01728l-.039.01286c-.01286.00882-.03014.00882-.04337.01727l-.039.01286a.426.426,0,0,1-.043.01764l-.039.01287c-.01286.00845-.0261.00845-.039.01727a.15975.15975,0,0,1-.043.01286.15819.15819,0,0,0-.039.01728l-.039.01286a.20077.20077,0,0,0-.04337.01727l-.039.01323a.14687.14687,0,0,0-.03676.01727c-.01727.00441-.0305.00846-.04337.01287a.164.164,0,0,0-.039.01727.41487.41487,0,0,1-.043.01286.15812.15812,0,0,0-.039.01727l-.039.01323a.16945.16945,0,0,0-.04337.01728l-.039.01286a.16229.16229,0,0,0-.03675.01727c-.01323.00441-.0305.00882-.04337.01286a.16443.16443,0,0,0-.039.01728l-.039.01323a.11851.11851,0,0,0-.043.01727l-.039.01286a.2008.2008,0,0,0-.04337.01728l-.039.01286a.16171.16171,0,0,0-.0386.01727c-.01323.00441-.0305.00882-.04337.01323l-.039.01286a.15829.15829,0,0,1-.03895.01728c-.01287.00441-.03014.00845-.043.01286a.144.144,0,0,1-.039.01727c-.01286.00441-.02609.00882-.04337.01323a.158.158,0,0,1-.039.01727l-.03675.01287a.201.201,0,0,1-.04337.01727l-.039.01286a.1468.1468,0,0,1-.039.01727l-.043.01323a.17144.17144,0,0,1-.039.01728c-.01286.004-.02609.00845-.04337.01286a.15812.15812,0,0,1-.039.01727l-.03675.01287a.18422.18422,0,0,1-.04337.01727l-.039.01286a.15015.15015,0,0,1-.03676.01764c-.01323.004-.0305.00845-.04337.01286a.17124.17124,0,0,1-.039.01728l-.039.01286a.17192.17192,0,0,1-.04337.01727l-.03859.01286a.13941.13941,0,0,1-.039.01728c-.01727.00441-.03013.00882-.04337.01323a.14349.14349,0,0,0-.03859.01727.16205.16205,0,0,1-.04337.01286.16447.16447,0,0,0-.039.01727l-.039.01287c-.01286.00882-.03014.00882-.043.01727l-.039.01323c-.01286.00845-.0261.00845-.039.01727a.15867.15867,0,0,1-.04337.01287.16146.16146,0,0,0-.03675.01727c-.01324.00441-.0261.00882-.04337.01286a.16422.16422,0,0,0-.039.01727l-.039.01323a.1622.1622,0,0,0-.043.01728l-.039.01286a.151.151,0,0,0-.039.01727c-.01286.00441-.03013.00845-.04337.01286a.16232.16232,0,0,0-.03675.01728c-.01323.00441-.02609.00882-.04337.01323a.13922.13922,0,0,0-.039.01727l-.039.01286a.176.176,0,0,0-.043.01727l-.039.01287a.164.164,0,0,0-.039.01727c-.01286.00441-.03014.00882-.04337.01286a.15045.15045,0,0,0-.03859.01764l-.039.01287a.17192.17192,0,0,0-.04337.01727l-.039.01286a.33835.33835,0,0,0-.043.01727l-.03895.01287-.039.01323a.18781.18781,0,0,1-.04337.01727l-.03676.01286a.15616.15616,0,0,1-.039.01727c-.01323.00441-.0305.00882-.04337.01287a.13513.13513,0,0,1-.039.01727l-.039.01323a.33615.33615,0,0,1-.043.01727l-.039.01286a.17262.17262,0,0,1-.04337.01728l-.03675.01286a.14388.14388,0,0,1-.039.01727c-.01323.00441-.0305.00882-.04337.01323a.15852.15852,0,0,1-.039.01728l-.039.01286a.19152.19152,0,0,1-.043.01727l-.039.01286a.12068.12068,0,0,1-.04337.01728l-.03676.01323a.17165.17165,0,0,1-.039.01727c-.01323.004-.0305.00845-.04337.01286a.158.158,0,0,1-.039.01727l-.039.01287a.16231.16231,0,0,1-.043.01727l-.039.01323c-.01286.00845-.02572.00845-.039.01727a.41487.41487,0,0,0-.043.01286c-.01323.00846-.02609.00846-.039.01728a.12516.12516,0,0,1-.04337.01286.11433.11433,0,0,0-.039.01727l-.03675.01323c-.01323.00845-.03051.00845-.04337.01728l-.039.01286a.147.147,0,0,0-.03676.01727c-.01323.00441-.0305.00845-.04337.01286a.15852.15852,0,0,0-.039.01728.39818.39818,0,0,1-.04337.01286.1582.1582,0,0,0-.039.01764l-.03675.01286a.17841.17841,0,0,0-.04337.01727l-.039.01287a.16186.16186,0,0,0-.03675.01727c-.01323.00441-.0305.00882-.04337.01286a.1644.1644,0,0,0-.039.01727l-.039.01323a.12571.12571,0,0,0-.043.01728l-.039.01286a.19407.19407,0,0,0-.04337.01727l-.039.01286a.16192.16192,0,0,0-.03675.01728c-.01324.00441-.03051.00882-.04337.01323a.13909.13909,0,0,0-.039.01727l-.039.01286a.19162.19162,0,0,0-.043.01728l-.039.01286c-.01286.00441-.02609.00882-.04337.01323a.158.158,0,0,1-.039.01727l-.03675.01286a.201.201,0,0,1-.04337.01728l-.039.01286a.1468.1468,0,0,1-.039.01727l-.043.01323a.171.171,0,0,1-.039.01727l-.039.01287a.32028.32028,0,0,1-.04337.01727l-.03675.01286a.13092.13092,0,0,1-.04337.01727l-.039.01287a.14709.14709,0,0,1-.039.01764c-.01287.004-.03014.00845-.043.01286a.17078.17078,0,0,1-.039.01727l-.039.01287a.17267.17267,0,0,1-.04337.01727l-.03859.01286a.14374.14374,0,0,1-.039.01727c-.01727.00441-.0305.00882-.04337.01323a.15836.15836,0,0,1-.039.01728c-.01286.00441-.03013.00845-.043.01286a.15652.15652,0,0,1-.039.01727l-.039.01286c-.01286.00882-.03013.00882-.04337.01728l-.03675.01323c-.01323.00845-.02609.00845-.039.01727a.16205.16205,0,0,1-.04337.01286.17111.17111,0,0,0-.039.01727.41321.41321,0,0,1-.043.01287c-.01323.00882-.0261.00882-.039.01727l-.039.01323a.16942.16942,0,0,0-.04337.01727l-.03676.01287a.15812.15812,0,0,0-.039.01727c-.01323.00441-.0305.00882-.04337.01286a.1716.1716,0,0,0-.039.01727l-.039.01323a.11871.11871,0,0,0-.043.01728l-.039.01286a.30992.30992,0,0,0-.04337.01727l-.03675.01286a.15836.15836,0,0,0-.039.01728c-.01286.00441-.0305.00882-.04337.01323a.14388.14388,0,0,0-.039.01727l-.03675.01286a.17267.17267,0,0,0-.04337.01727l-.039.01287a.36258.36258,0,0,0-.04337.01727l-.03676.01323a.13525.13525,0,0,0-.039.01727c-.01286.004-.0305.00846-.04337.01287a.15632.15632,0,0,0-.039.01727l-.03675.01286c-.01323.00441-.0305.00882-.04337.01286a.13941.13941,0,0,1-.039.01728l-.039.01323a.3391.3391,0,0,1-.043.01727l-.039.01286a.12743.12743,0,0,1-.04337.01727l-.039.01287a.13787.13787,0,0,1-.03675.01727c-.01323.00441-.03051.00882-.04337.01323a.1644.1644,0,0,1-.039.01727l-.039.01286a.17568.17568,0,0,1-.043.01728l-.039.01286a.13935.13935,0,0,1-.039.01727c-.01728.00441-.03014.00882-.04337.01323a.16214.16214,0,0,1-.0386.01728c-.01323.004-.0305.00845-.04337.01286a.16422.16422,0,0,1-.039.01727l-.039.01286a.162.162,0,0,1-.043.01728l-.039.01323a.16422.16422,0,0,1-.039.01727c-.01286.004-.03013.00845-.04337.01286a.16166.16166,0,0,1-.03675.01727c-.01323.00441-.02609.00846-.04337.01287a.15083.15083,0,0,1-.039.01727l-.039.01323c-.01286.00845-.03014.00845-.043.01727l-.039.01286c-.01287.00846-.0261.00846-.039.01728a.15829.15829,0,0,1-.04337.01286.12049.12049,0,0,0-.03676.01727l-.039.01287a.438.438,0,0,0-.04337.01764l-.039.01286a.17565.17565,0,0,0-.043.01727l-.039.01286a.16443.16443,0,0,0-.039.01728c-.01286.00441-.03013.00882-.04337.01286a.16221.16221,0,0,0-.03859.01727l-.039.01323a.173.173,0,0,0-.04337.01727L47.4,43.855a.33615.33615,0,0,0-.043.01727l-.039.01286a.1644.1644,0,0,0-.039.01727c-.01286.00441-.03014.00882-.04337.01323a.1373.1373,0,0,0-.03675.01728l-.039.01286a.19407.19407,0,0,0-.04337.01727l-.039.01287a.16173.16173,0,0,0-.03676.01727c-.01764.00441-.0305.00882-.04337.01323a.13935.13935,0,0,0-.039.01727c-.01286.004-.02572.00845-.04337.01286l-.03675.01287a.14418.14418,0,0,1-.039.01727c-.01286.00441-.0305.00882-.04337.01323a.158.158,0,0,1-.039.01727l-.03675.01286a.19363.19363,0,0,1-.04337.01728l-.039.01286a.11794.11794,0,0,1-.04337.01727l-.03675.01323a.164.164,0,0,1-.039.01727c-.01287.004-.03051.00846-.04337.01287a.16211.16211,0,0,1-.0386.01727l-.039.01286a.17772.17772,0,0,1-.04337.01728l-.039.01323a.16231.16231,0,0,1-.03675.01727.39662.39662,0,0,0-.04337.01286.16382.16382,0,0,1-.039.01727c-.01286.00441-.02572.00846-.04337.01287a.147.147,0,0,1-.03675.01727l-.039.01286a.15955.15955,0,0,1-.04337.01727l-.039.01323a.16232.16232,0,0,1-.03675.01728c-.01323.00441-.03051.00845-.04337.01286a.151.151,0,0,1-.039.01727.41261.41261,0,0,1-.043.01286c-.01323.00882-.02609.00882-.03895.01728l-.039.01323c-.01287.00845-.03014.00845-.04337.01727l-.039.01286c-.01287.00882-.02573.00882-.03676.01728a.14436.14436,0,0,1-.04337.01286.15091.15091,0,0,0-.039.01727l-.039.01323a.162.162,0,0,0-.043.01727l-.039.01287a.293.293,0,0,0-.04337.01727l-.039.01286a.16251.16251,0,0,0-.03675.01727c-.01323.00441-.0305.00882-.04337.01323a.13941.13941,0,0,0-.039.01728l-.039.01286a.17533.17533,0,0,0-.043.01727l-.039.01286a.16425.16425,0,0,0-.039.01728c-.01728.00441-.03014.00882-.04337.01323a.13717.13717,0,0,0-.03676.01727c-.01323.004-.0305.00845-.04337.01286a.151.151,0,0,0-.039.01728l-.039.01286a.191.191,0,0,0-.043.01727l-.039.01286a.15261.15261,0,0,0-.039.01764c-.01286.00405-.03013.00846-.04337.01287a.14662.14662,0,0,0-.03675.01727c-.01323.00441-.02609.00845-.04337.01286l-.039.01286a.13489.13489,0,0,1-.039.01728l-.043.01323a.1716.1716,0,0,1-.039.01727l-.039.01286a.17221.17221,0,0,1-.04337.01727l-.03859.01287a.14418.14418,0,0,1-.039.01727c-.01728.00441-.03051.00882-.04337.01323a.15812.15812,0,0,1-.039.01727c-.01287.004-.02573.00846-.043.01287a4.73415,4.73415,0,0,1-1.87144.38038,4.801,4.801,0,0,1-1.90708-9.23995.15812.15812,0,0,0,.039-.01727c.01323-.00441.02609-.00882.04337-.01287a.17116.17116,0,0,0,.039-.01727l.039-.01323a.17565.17565,0,0,0,.043-.01727l.039-.01287a.164.164,0,0,0,.039-.01727c.01286-.00441.03013-.00882.043-.01286l.039-.01323a.171.171,0,0,1,.039-.01727c.01727-.004.03013-.00846.04337-.01287a.14713.14713,0,0,1,.039-.01727.41487.41487,0,0,1,.043-.01286.13935.13935,0,0,1,.039-.01727l.039-.01323a.19155.19155,0,0,1,.043-.01728l.039-.01286a.17116.17116,0,0,1,.039-.01727c.01323-.00441.03014-.00882.04337-.01286a.135.135,0,0,1,.039-.01728l.039-.01323a.317.317,0,0,1,.043-.01727l.039-.01286a.19155.19155,0,0,1,.043-.01728l.039-.01286a.15652.15652,0,0,1,.039-.01727l.04337-.01323a.158.158,0,0,1,.039-.01727l.039-.01287a.31636.31636,0,0,1,.043-.01727l.039-.01286a.12856.12856,0,0,1,.043-.01727l.039-.01287a.14418.14418,0,0,1,.039-.01727l.04337-.01323a.15062.15062,0,0,0,.039-.01727l.039-.01286c.01286-.00882.03014-.00882.043-.01728l.039-.01286c.01287-.00882.0261-.00882.039-.01727a.17545.17545,0,0,1,.043-.01323.135.135,0,0,0,.039-.01728c.01323-.004.03013-.00845.04337-.01286a.17116.17116,0,0,0,.039-.01727l.03895-.01286a.19143.19143,0,0,0,.043-.01728l.039-.01323a.13935.13935,0,0,0,.039-.01727c.01286-.004.03013-.00845.043-.01286a.147.147,0,0,0,.039-.01727.42224.42224,0,0,1,.04337-.01287.171.171,0,0,0,.039-.01727l.03675-.01323a.15955.15955,0,0,0,.04337-.01727l.039-.01286a.147.147,0,0,0,.03675-.01728c.01323-.00441.03051-.00845.04337-.01286a.158.158,0,0,0,.039-.01727l.039-.01323a.1233.1233,0,0,0,.04337-.01728l.03676-.01286c.01286-.00441.0305-.00845.04337-.01286a.14666.14666,0,0,1,.039-.01727l.03859-.01287A.18609.18609,0,0,1,43.029,35.22l.039-.01286a.158.158,0,0,1,.039-.01727c.01286-.00441.03013-.00845.043-.01286a.15672.15672,0,0,1,.039-.01728.42546.42546,0,0,1,.04337-.01286.13486.13486,0,0,1,.039-.01727l.03675-.01323a.201.201,0,0,1,.04337-.01727l.039-.01287a.147.147,0,0,1,.039-.01727c.01287-.00441.03014-.00882.043-.01286a.14388.14388,0,0,1,.039-.01727l.039-.01324a.3208.3208,0,0,1,.04337-.01727l.03676-.01286a.13075.13075,0,0,1,.04337-.01727l.039-.01287a.135.135,0,0,1,.039-.01727l.043-.01323a.171.171,0,0,1,.039-.01727l.039-.01286a.17262.17262,0,0,1,.04337-.01728l.03675-.01286a.39429.39429,0,0,1,.04337-.01727l.039-.01323c.01286-.00845.02573-.00845.039-.01727a.16381.16381,0,0,1,.043-.01287.15062.15062,0,0,0,.039-.01727l.039-.01286c.01287-.00882.03014-.00882.04337-.01727l.03676-.01324c.01323-.00845.02609-.00845.039-.01727a.162.162,0,0,1,.04337-.01286.15705.15705,0,0,0,.039-.01727c.01286-.00441.02572-.00846.043-.01287a.15812.15812,0,0,0,.039-.01727l.039-.01323a.16956.16956,0,0,0,.04337-.01727l.03675-.01286a.14715.14715,0,0,0,.039-.01728c.01323-.00441.0305-.00845.04337-.01286a.171.171,0,0,0,.039-.01727l.039-.01286a.13353.13353,0,0,0,.043-.01728l.039-.01323a.18346.18346,0,0,0,.04337-.01727l.03676-.01286a.15789.15789,0,0,0,.03895-.01727c.01324-.00442.03051-.00883.04337-.01287a.17078.17078,0,0,0,.039-.01727l.039-.01323a.16217.16217,0,0,0,.043-.01727l.039-.01287a.39884.39884,0,0,1,.04337-.01286.13735.13735,0,0,1,.03859-.01727l.039-.01323a.19407.19407,0,0,1,.04337-.01727l.039-.01287a.16251.16251,0,0,1,.03675-.01727c.01323-.00441.0305-.00845.04337-.01286a.13922.13922,0,0,1,.039-.01727l.039-.01323a.33767.33767,0,0,1,.043-.01728l.039-.01286a.13576.13576,0,0,1,.04337-.01727l.039-.01286a.1469.1469,0,0,1,.03676-.01728c.01323-.00441.0305-.00882.04337-.01323a.15779.15779,0,0,1,.039-.01727l.039-.01286a.19155.19155,0,0,1,.043-.01728l.039-.01286a.15068.15068,0,0,1,.039-.01727c.01727-.00441.03013-.00882.043-.01286a.15784.15784,0,0,1,.039-.01764c.01323-.004.0305-.00846.04337-.01287a.158.158,0,0,1,.039-.01727l.039-.01286a.17565.17565,0,0,1,.043-.01727l.039-.01287c.01286-.00882.02609-.00882.039-.01727a.17551.17551,0,0,1,.043-.01323.15062.15062,0,0,0,.039-.01727.12523.12523,0,0,1,.04337-.01286.11435.11435,0,0,0,.039-.01728l.039-.01286c.01287-.00882.03014-.00882.043-.01727l.039-.01323a.13937.13937,0,0,0,.039-.01728c.01286-.00441.03013-.00845.043-.01286a.15812.15812,0,0,0,.039-.01727A.45141.45141,0,0,1,46.74,33.833a.1714.1714,0,0,0,.057-.01558l.039-.01323a.162.162,0,0,0,.043-.01728l.039-.01286a.1644.1644,0,0,0,.039-.01727c.01286-.00441.03013-.00882.043-.01287a.158.158,0,0,0,.039-.01727l.039-.01323a.12347.12347,0,0,0,.04337-.01727l.039-.01286a.29053.29053,0,0,0,.043-.01728l.039-.01286a.16422.16422,0,0,0,.039-.01727l.043-.01323a.13525.13525,0,0,0,.039-.01727l.039-.01287c.01286-.00441.03013-.00845.04337-.01286a.14666.14666,0,0,1,.039-.01727l.03675-.01286a.29838.29838,0,0,1,.04337-.01765l.039-.01286a.19152.19152,0,0,1,.043-.01727l.039-.01286a.15655.15655,0,0,1,.039-.01728c.01286-.00441.03013-.00882.04337-.01286a.13513.13513,0,0,1,.039-.01727l.03675-.01323a.201.201,0,0,1,.04337-.01727l.039-.01287a.12569.12569,0,0,1,.043-.01727l.039-.01286a.14388.14388,0,0,1,.039-.01727c.01287-.00441.03014-.00882.04337-.01323a.15852.15852,0,0,1,.039-.01728l.0386-.01286a.17746.17746,0,0,1,.04337-.01727l.039-.01286a.1373.1373,0,0,1,.03675-.01728c.01764-.00441.0305-.00882.04337-.01323a.16422.16422,0,0,1,.039-.01727c.01286-.004.02572-.00845.04337-.01286a.16207.16207,0,0,1,.03859-.01728l.039-.01286c.01286-.00882.0305-.00882.04337-.01727l.039-.01323c.01286-.00845.02573-.00845.03675-.01727s.03051-.00846.04337-.01287a.15062.15062,0,0,0,.039-.01727.12284.12284,0,0,1,.04337-.01286.08566.08566,0,0,0,.03676-.01727l.039-.01323a.16446.16446,0,0,0,.04337-.01728l.039-.01286a.147.147,0,0,0,.03675-.01727c.01323-.00441.0305-.00845.04337-.01286a.16443.16443,0,0,0,.039-.01728l.039-.01286a.17741.17741,0,0,0,.043-.01764l.039-.01286a.29419.29419,0,0,0,.04337-.01728l.039-.01286a.16164.16164,0,0,0,.03859-.01727c.01323-.00441.0305-.00882.04337-.01286a.16425.16425,0,0,0,.039-.01728l.039-.01323a.17533.17533,0,0,0,.043-.01727l.039-.01286a.16422.16422,0,0,0,.039-.01727c.01728-.00441.03014-.00882.04337-.01287a.16173.16173,0,0,0,.03676-.01727c.01323-.00441.0305-.00882.04337-.01323a.13964.13964,0,0,0,.039-.01727l.039-.01286c.01286-.00441.03013-.00882.043-.01287a.144.144,0,0,1,.039-.01727l.039-.01323a.18763.18763,0,0,1,.04337-.01727l.03675-.01287a.13947.13947,0,0,1,.0594-.01771l.039-.01286a.13459.13459,0,0,1,.039-.01727l.043-.01323a.17163.17163,0,0,1,.039-.01728l.039-.01286A.18763.18763,0,0,1,50.2,32.55058l.03676-.01286a.144.144,0,0,1,.03895-.01728c.01728-.00441.03051-.00882.04337-.01323a.15812.15812,0,0,1,.039-.01727c.01287-.004.03014-.00845.043-.01286a.17078.17078,0,0,1,.039-.01727l.039-.01287a.17192.17192,0,0,1,.04337-.01727l.03675-.01286a.15784.15784,0,0,1,.039-.01764c.01286-.004.0305-.00845.04337-.01287a.15647.15647,0,0,0,.039-.01727.12545.12545,0,0,1,.043-.01286.11129.11129,0,0,0,.039-.01727l.039-.01287c.01286-.00882.03014-.00882.04337-.01727l.03675-.01323c.01323-.00845.0261-.00845.039-.01727a.16216.16216,0,0,1,.04337-.01286.17073.17073,0,0,0,.039-.01728l.03676-.01286a.13239.13239,0,0,0,.04337-.01727l.039-.01323a.26936.26936,0,0,0,.04337-.01727l.03675-.01287a.164.164,0,0,0,.039-.01727c.01286-.00441.0305-.00882.04337-.01286a.16251.16251,0,0,0,.03675-.01727l.039-.01324a.15923.15923,0,0,0,.04337-.01727l.039-.01286a.15652.15652,0,0,0,.039-.01727c.01727-.00441.03014-.00882.043-.01287a.16382.16382,0,0,0,.039-.01727c.01287-.00441.03014-.00882.04337-.01323a.13778.13778,0,0,0,.03676-.01727l.039-.01287a.17761.17761,0,0,0,.04337-.01727l.039-.01286a.17163.17163,0,0,0,.039-.01728l.043-.01323a.13935.13935,0,0,0,.039-.01727c.01286-.004.02609-.00846.043-.01287l.039-.01286a.15616.15616,0,0,1,.039-.01727c.01323-.00441.03013-.00882.04337-.01287a.14727.14727,0,0,1,.039-.01764l.039-.01286a.19155.19155,0,0,1,.043-.01728l.039-.01286a.15083.15083,0,0,1,.039-.01727c.01727-.00441.03014-.00882.043-.01287a.14418.14418,0,0,1,.039-.01727c.01323-.00441.0261-.00882.04337-.01323a.15812.15812,0,0,1,.039-.01727l.03455-.01287a13.29021,13.29021,0,0,1,2.61458,4.11629A4.95754,4.95754,0,0,0,60.78329,38.84629Z"/><path class="cls-4" d="M64.48317,34.13424a4.79547,4.79547,0,0,1-2.97365,4.43861.16219.16219,0,0,1-.03676.01728l-.039.01286c-.01286.00882-.03013.00882-.04337.01727l-.03675.01286c-.01323.00882-.02609.00882-.039.01765a.16205.16205,0,0,1-.04337.01286.15647.15647,0,0,0-.039.01727l-.039.01286c-.01727.00882-.03013.00882-.043.01728l-.039.01286a.33909.33909,0,0,0-.04337.01727l-.03675.01323a.14666.14666,0,0,0-.039.01727c-.01323.00441-.03051.00846-.04337.01287a.17078.17078,0,0,0-.039.01727l-.039.01286a.19225.19225,0,0,0-.043.01727.069.069,0,0,1-.03895.01323A4.93716,4.93716,0,0,1,55.08,35.8197a13.28419,13.28419,0,0,0-2.615-4.11629h.00441a.17221.17221,0,0,1,.04337-.01727l.03859-.01287a.13935.13935,0,0,1,.039-.01727c.01286-.00441.03051-.00882.04337-.01323a.16232.16232,0,0,1,.03675-.01728c.01324-.00441.0261-.00845.04337-.01286a.151.151,0,0,1,.039-.01727l.039-.01287a.16217.16217,0,0,1,.043-.01727l.039-.01323a.16382.16382,0,0,1,.039-.01727c.01286-.00441.03013-.00846.043-.01287a.16447.16447,0,0,0,.039-.01727l.039-.01287c.01727-.00882.03013-.00882.04337-.01727l.039-.01323c.01286-.00845.02572-.00845.043-.01727l.039-.01287c.01286-.00882.02609-.00882.039-.01727a.15975.15975,0,0,1,.043-.01286.15836.15836,0,0,0,.039-.01728l.039-.01323a.16417.16417,0,0,0,.04337-.01727l.039-.01287a.15616.15616,0,0,0,.039-.01727c.01691-.00441.03014-.00845.043-.01286a.16425.16425,0,0,0,.039-.01728l.043-.01323a.135.135,0,0,0,.039-.01727l.039-.01287a.17761.17761,0,0,0,.04337-.01727l.039-.01286a.17163.17163,0,0,0,.039-.01728c.0169-.00441.03013-.00882.043-.01286a.15261.15261,0,0,0,.039-.01764c.01286-.004.02609-.00845.043-.01287a.1468.1468,0,0,0,.039-.01727l.039-.01286a.19363.19363,0,0,0,.04337-.01728l.039-.01286a.17141.17141,0,0,0,.039-.01727l.043-.01323.039-.01287a.12877.12877,0,0,1,.043-.01727l.039-.01287a.14449.14449,0,0,1,.039-.01727l.04337-.01323a.15812.15812,0,0,1,.039-.01727l.039-.01287a.19206.19206,0,0,1,.043-.01727l.039-.01286a.13912.13912,0,0,1,.039-.01728l.043-.01323a.17078.17078,0,0,1,.039-.01727c.01323-.004.02609-.00846.04337-.01287a.158.158,0,0,1,.039-.01727l.039-.01286a.162.162,0,0,1,.043-.01728l.039-.01323a.1644.1644,0,0,1,.039-.01727c.01286-.004.03013-.00845.043-.01286a.17119.17119,0,0,1,.039-.01728l.039-.01286a.27718.27718,0,0,1,.04337-.01728l.03675-.01323a.20118.20118,0,0,1,.04337-.01727l.03556-.01138c.01286-.00845.02572-.00845.039-.01727a.16356.16356,0,0,1,.043-.01286.16411.16411,0,0,0,.039-.01728l.039-.01286c.01286-.00882.03014-.00882.04337-.01764l.03675-.01287c.01323-.00845.0261-.00845.04337-.01727l.039-.01286a.17124.17124,0,0,0,.039-.01728c.01287-.00441.03014-.00882.043-.01286a.16458.16458,0,0,0,.039-.01727l.039-.01323a.17608.17608,0,0,0,.043-.01728l.039-.01286a.15815.15815,0,0,0,.039-.01728c.01727-.00441.03013-.00882.04337-.01286a.1716.1716,0,0,0,.039-.01727c.01286-.00441.02572-.00882.043-.01323a.13912.13912,0,0,0,.039-.01728l.039-.01286a.192.192,0,0,0,.043-.01727l.039-.01287a.158.158,0,0,0,.039-.01727c.01286-.00441.03014-.00882.04337-.01323a.14421.14421,0,0,0,.039-.01728c.01286-.004.02573-.00845.043-.01286a.16422.16422,0,0,0,.039-.01727l.039-.01287a.191.191,0,0,0,.04552-.01764l.039-.01323.039-.01286a.18718.18718,0,0,1,.04337-.01727l.039-.01287a.147.147,0,0,1,.03675-.01727c.01323-.00441.03051-.00882.04337-.01323a.16461.16461,0,0,1,.039-.01728c.01287-.004.02573-.00845.043-.01286a.17078.17078,0,0,1,.039-.01727l.043-.01287a.17259.17259,0,0,1,.04337-.01727l.039-.01286a.13759.13759,0,0,1,.03675-.01728c.01323-.00441.03051-.00882.04337-.01323a.1644.1644,0,0,1,.039-.01727l.039-.01287a.2906.2906,0,0,1,.043-.01727l.039-.01286a.15926.15926,0,0,1,.04337-.01728l.039-.01323a.16188.16188,0,0,1,.03675-.01727c.01323-.004.0305-.00845.04337-.01286a.15037.15037,0,0,1,.039-.01728l.039-.01286a.162.162,0,0,1,.043-.01728l.039-.01323c.01286-.00845.02609-.00845.04337-.01727l.039-.01286c.01286-.00846.02572-.00846.03859-.01728A.14963.14963,0,0,1,57.566,29.803a.15077.15077,0,0,0,.039-.01727l.039-.01324c.01286-.00845.03014-.00845.043-.01727l.039-.01286a.15655.15655,0,0,0,.039-.01728c.01728-.00441.03014-.00845.04337-.01286a4.72466,4.72466,0,0,1,1.87323-.37855A4.78849,4.78849,0,0,1,63.87822,31.81v.00441c.11026.26351.22052.53144.32416.79937a5.33765,5.33765,0,0,1,.19.61818c.01287.05623.02169.11687.03455.17273A4.53624,4.53624,0,0,1,64.48317,34.13424Z"/><path class="cls-1" d="M58.48809,50.34691a4.91105,4.91105,0,0,1,.03454,7.14838A22.9982,22.9982,0,1,1,63.87786,31.81a4.78923,4.78923,0,0,0-4.19678-2.47639,4.72782,4.72782,0,0,0-1.87144.38039c-.01287.00441-.0261.00845-.04337.01286a.14706.14706,0,0,1-.03676.01728l-.039.01286c-.01323.00882-.0305.00882-.04337.01727l-.039.01323c-.01286.00846-.02572.00846-.039.01728a.16356.16356,0,0,1-.043.01286.16447.16447,0,0,0-.039.01727l-.039.01287c-.01727.00882-.03013.00882-.043.01727l-.039.01323a.15926.15926,0,0,0-.04337.01728l-.039.01286a.17141.17141,0,0,0-.039.01727c-.01286.00441-.03014.00882-.043.01287a.16422.16422,0,0,0-.039.01727l-.039.01323a.162.162,0,0,0-.043.01728l-.039.01286a.29327.29327,0,0,0-.04337.01727l-.039.01287a.16173.16173,0,0,0-.03676.01727c-.01323.00441-.0305.00882-.04337.01323a.13964.13964,0,0,0-.039.01727L56.804,30.09a.17221.17221,0,0,0-.04337.01727l-.039.01287a.171.171,0,0,0-.039.01727c-.01727.00441-.03013.00882-.04337.01323a.13747.13747,0,0,0-.03859.01727c-.01286.004-.0305.00846-.04337.01287a.15068.15068,0,0,0-.039.01727l-.03675.01286a.18748.18748,0,0,0-.04337.01728l-.039.01286-.039.01323a.19162.19162,0,0,1-.043.01728l-.039.01286a.15068.15068,0,0,1-.039.01727c-.01727.00441-.03013.00882-.04337.01287a.13758.13758,0,0,1-.03675.01727c-.01323.00441-.0305.00882-.04337.01323a.164.164,0,0,1-.039.01727l-.039.01287a.191.191,0,0,1-.043.01727l-.039.01287a.13938.13938,0,0,1-.039.01727c-.01727.00441-.03014.00882-.04337.01323a.16186.16186,0,0,1-.03675.01727c-.01323.004-.0261.00846-.04337.01287a.1644.1644,0,0,1-.039.01727l-.039.01286a.1622.1622,0,0,1-.043.01728l-.03895.01323a.16458.16458,0,0,1-.039.01727c-.01287.004-.03014.00846-.04337.01287a.1625.1625,0,0,1-.0386.01727l-.039.01286c-.01727.00882-.0305.00882-.04337.01728l-.039.01323c-.01286.00845-.03013.00845-.043.01727l-.039.01287c-.01286.00845-.02609.00845-.039.01727a.15819.15819,0,0,1-.04337.01286.12033.12033,0,0,0-.03675.01728l-.039.01286a.17375.17375,0,0,0-.04337.01764l-.039.01287a.2894.2894,0,0,0-.043.01727l-.039.01286a.16385.16385,0,0,0-.039.01728c-.01287.00441-.03014.00882-.04337.01286a.16216.16216,0,0,0-.03676.01727l-.039.01323a.17262.17262,0,0,0-.04337.01728l-.039.01286a.17119.17119,0,0,0-.039.01728c-.01727.00441-.03013.00882-.043.01286a.1644.1644,0,0,0-.039.01727c-.01286.00441-.03013.00882-.04337.01323a.13744.13744,0,0,0-.03675.01728l-.039.01286a.18763.18763,0,0,0-.04337.01727l-.039.01287a.171.171,0,0,0-.039.01727l-.043.01323a.13912.13912,0,0,0-.039.01728l-.039.01286a.13351.13351,0,0,0-.043.01727l-.039.01287c-.01287.00441-.03051.00882-.04337.01323a.15812.15812,0,0,1-.039.01727l-.03676.01286a.2008.2008,0,0,1-.04337.01728l-.039.01286a.13477.13477,0,0,1-.039.01728c-.01727.00441-.03013.00882-.043.01323a.17141.17141,0,0,1-.039.01727c-.01286.004-.02609.00845-.04337.01286a.15836.15836,0,0,1-.039.01728l-.03675.01286a.18379.18379,0,0,1-.04337.01727l-.039.01287a.147.147,0,0,1-.039.01764c-.01286.004-.03014.00845-.043.01286a.164.164,0,0,1-.039.01728c-.01287.00441-.0261.00845-.04337.01286a.14652.14652,0,0,1-.03676.01727l-.039.01287a.16928.16928,0,0,1-.04337.01727l-.039.01323a.15819.15819,0,0,1-.039.01728c-.01286.00441-.03013.00845-.043.01286a.16464.16464,0,0,0-.039.01727l-.039.01287c-.01727.00882-.03013.00882-.043.01727l-.039.01323c-.01323.00846-.02609.00846-.04337.01728l-.039.01286c-.01286.00845-.02572.00845-.039.01727a.15107.15107,0,0,1-.043.01287.1644.1644,0,0,0-.039.01727l-.039.01323a.16231.16231,0,0,0-.043.01727l-.039.01287a.14666.14666,0,0,0-.039.01727c-.01728.00441-.03014.00846-.04337.01287a.17078.17078,0,0,0-.039.01727l-.043.01323a.13935.13935,0,0,0-.039.01727l-.03895.01287a.17556.17556,0,0,0-.043.01727H52.481a13.34039,13.34039,0,1,0-.55239,18.73574,4.883,4.883,0,0,1,3.371-1.36573A4.66762,4.66762,0,0,1,58.48809,50.34691Z"/><path class="cls-4" d="M5.68413,32.13356A5.661,5.661,0,0,1,0,26.53359V6.71856a5.719,5.719,0,0,1,5.68413-5.6,5.69871,5.69871,0,0,1,5.59646,5.6v19.815A5.64,5.64,0,0,1,5.68413,32.13356Z"/><path class="cls-5" d="M396.28289,79.43969l-.01465.00622-.01642.00488-.01465.00666-.01643.00488-.01464.00666-.01465.00488-.01643.00666-.01464.00489-.01465.00621-.01643.00488-.01464.00666-.01643.00488-.01465.00489-.01464.00666-.01643.00488-.01465.00666-.01464.00488-.01643.00622-.01465.00488-.01464.00666-.016.00488-.0151.00666-.016.00488-.01509.00666-.01465.00488-.016.00622-.01509.00488-.01465.00666-.016.00488-.01509.00666-.016.00488-.01464.00666-.0151.00489-.016.00621-.01464.00488-.0151.00666-.016.00488-.01464.00666-.0151.00489-.016.00666-.01464.00488c-.00489.00311-.01021.00311-.01643.00621l-.01465.00489-.01464.00666-.01643.00488-.01465.00666-.01464.00488-.01643.00666-.01465.00488-.01464.00622-.01643.00488-.01465.00666-.01642.00488-.01465.00666-.01465.00488-.01642.00666-.01465.00488-.01465.00622-.01642.00488-.01465.00666-.01642.00488-.01465.00666-.01465.00488-.01642.00666-.01465.00489-.01465.00621-.01642.00488-.01465.00533a.04432.04432,0,0,1-.01642.00622l-.01465.00488-.01465.00666-.01642.00488-.01465.00666-.01465.00488-.01642.00622-.01465.00532-.01465.00622-.01642.00488-.01465.00666-.01642.00488-.01465.00666-.01465.00488-.01642.00622-.01465.00532-.01465.00622-.01642.00488-.01465.00666-.01465.00488-.01642.00666-.01465.00489-.01643.00621-.01464.00533-.01465.00621-.01643.00488-.01464.00666-.01465.00489c-.00488.0031-.01154.0031-.01643.00666l-.01464.00488-.01643.00621-.01465.00533-.01464.00622-.01643.00488-.01465.00666-.01464.00488-.01643.00666-.01464.00488-.01465.00622-.01643.00532-.01464.00622-.016.00488-.0151.00666L394.57,80.078l-.016.00666-.0151.00488-.01464.00622-.016.00488-.0151.00666-.01464.00488-.016.00666-.0151.00488-.016.00666-.01464.00489-.0151.00621-.016.00533-.01464.00488-.0151.00622-.016.00488-.01464.00666-.01643.00488-.01465.00666-.01464.00488-.01643.00622-.01465.00532-.01464.00622-.01643.00488-.01465.00666-.01642.00488-.01465.00666-.01464.00488-.01643.00666-.01465.00489-.01464.00621-.01643.00488-.01465.00666-.01464.00488-.01643.00666-.01465.00489-.01464.00621-.01643.00533-.01465.00621-.01642.00488-.01465.00666-.01465.00489c-.00488.0031-.01154.0031-.01642.00666l-.01465.00488-.01465.00666-.01642.00488-.01465.00622-.01642.00488-.01465.00666-.01465.00488-.01642.00666-.01465.00488-.01465.00622-.01642.00532-.01465.00622-.01642.00488-.01465.00666-.01465.00488-.01642.00666-.01465.00488-.01465.00666-.01642.00489-.01465.00621-.01465.00488-.01642.00666-.01465.00488-.01642.00666-.01465.00489-.01465.00488-.01642.00666-.01465.00488-.01465.00622-.01642.00488-.01465.00666-.01465.00488-.01642.00666-.01465.00488-.01643.00666-.01464.00488-.01465.00622-.01643.00488-.01464.00666-.01465.00488-.01643.00666-.01464.00488-.016.00666-.0151.00489-.01464.00621-.016.00488-.0151.00666-.01464.00488-.016.00666-.0151.00489-.01464.00666-.016.00488-.0151.00621-.016.00489-.01465.00665-.0151.00489c-.00488.0031-.01109.0031-.016.00666l-.01465.00488-.01509.00666-.016.00488-.01465.00622-.01643.00488-.01464.00666-.01465.00488-.01643.00666-.01464.00488-.01465.00666-.01643.00488-.01464.00622-.01465.00488-.01643.00666-.01464.00488-.01643.00666-.01465.00488-.01464.00666-.01643.00489-.01465.00621-.01464.00488-.01643.00666-.01465.00488-.01642.00489-.01465.00666-.01465.00488-.01642.00666-.01465.00488-.01465.00622-.01642.00488-.01465.00666-.01464.00488-.01643.00666-.01465.00488-.01642.00666-.01465.00488-.01465.00622-.01642.00488-.01465.00666-.01465.00488-.01642.00666-.01465.00488-.01465.00666-.01642.00489-.01465.00621-.01642.00488-.01465.00666-.01465.00488c-.00488.00311-.01154.00311-.01642.00666l-.01465.00489-.01465.00666-.01642.00488-.01465.00621-.01642.00489-.01465.00665-.01465.00489-.01642.00666-.01465.00488-.01465.00666-.01642.00488-.01465.00622-.01465.00488-.01642.00666-.01465.00488-.01643.00666-.01464.00488-.01465.00666-.01642.00488-.01465.00622-.01465.00488-.01642.00666-.01465.00488-.016.00666-.01509.00488-.01465.00666-.016.00489-.01509.00621-.01465.00488-.016.00488-.01509.00666-.01465.00489-.016.00666-.01509.00488-.016.00666-.0151.00488-.01464.00622-.016.00488-.01465.00666-.01509.00488-.016.00666-.01465.00488-.01509.00666-.016.00488-.01465.00622-.01643.00488-.01464.00666-.01465.00488-.01643.00666-.01464.00488-.01465.00666-.01642.00489-.01465.00621-.01643.00488-.01464.00666-.01465.00488c-.00488.00311-.01154.00311-.01643.00666l-.01464.00489-.01465.00666-.01643.00488-.01464.00621-.01465.00489-.01643.00665-.01464.00489-.01643.00666-.01465.00488-.01464.00666-.01643.00488-.01465.00622-.01464.00488-.01643.00666-.01465.00488-.01642.00666-.01465.00488-.01465.00666-.01642.00488-.01465.00622-.01465.00488-.01642.00666-.01465.00488-.01465.00666-.01642.00488-.01465.00666-.01642.00489-.01465.00488-.01465.00621-.01642.00489-.01465.00665-.01465.00489-.01642.00666-.01465.00488-.01642.00666-.01465.00488-.01465.00622-.01642.00488-.01465.00666-.01465.00488-.01642.00666-.01465.00488-.01465.00666-.01642.00488-.01465.00622-.01642.00488-.01465.00666-.01465.00488-.01642.00666-.01465.00488-.01465.00666-.01642.00489-.01465.00621-.016.00488c-.00488.00355-.01021.00355-.01509.00666l-.01465.00488c-.00488.00356-.0111.00356-.016.00666l-.01509.00489-.01465.00666-.016.00488-.01509.00621-.01438.0035-.016.00666-.01509.00488-.016.00666-.01465.00488-.01509.00666-.016.00488-.01465.00622-.01509.00488-.016.00666-.01465.00488-.01509.00666-.016.00488-.01465.00666-.01642.00489-.01465.00621-.01465.00488-.01642.00666-.01465.00488-.01465.00666-.01642.00489-.01465.00666-.01643.00488-.01464.00488-.01465.00622-.01643.00488-.01464.00666-.01465.00488-.01643.00666-.01464.00488-.01465.00666-.01643.00488-.01464.00622-.01643.00488a1.78427,1.78427,0,0,1-.70712.14382,1.81376,1.81376,0,0,1-.6907-3.49124l.01464-.00621.01643-.00489.01465-.00666.01464-.00488.01643-.00666.01465-.00488.01464-.00666.01643-.00488.01464-.00488.01465-.00622.01643-.00488.01464-.00666.01643-.00488.01465-.00666.01464-.00488.01643-.00666.01465-.00489.01464-.00621.01643-.00488.01465-.00666.01464-.00488.01643-.00666.01465-.00489.01642-.00666.01465-.00488.01465-.00621.01642-.00489.01465-.00665.01465-.00489.01642-.00666.01465-.00488.01642-.00666.01465-.00488.01465-.00622.01642-.00488.01465-.00666.01465-.00488c.00488-.00311.01154-.00311.01642-.00666l.01465-.00488.01465-.00666.01642-.00488.01465-.00622.01642-.00488.01465-.00666.01465-.00488.01642-.00666.01465-.00488.01465-.00666.01642-.00489.01465-.00621.016-.00488.01509-.00666.01465-.00488.016-.00666.01509-.00489.01465-.00666.016-.00488.01509-.00621.01465-.00489.016-.00666.01509-.00488.016-.00488.01509-.00666.01465-.00488.016-.00666.01465-.00488.01509-.00622.016-.00488.01509-.00666.016-.00488.01465-.00666.01465-.00488.01642-.00666.01465-.00489.01465-.00621.01642-.00488.01465-.00666.01465-.00488.01642-.00666.01465-.00489.01642-.00666.01465-.00488.01465-.00621.01642-.00489.01465-.00665.01465-.00489.01642-.00666.01465-.00488.01643-.00666.01464-.00488.01465-.00622.01643-.00488.01464-.00666.01465-.00488c.00488-.00311.01154-.00311.01643-.00666l.01464-.00488.01465-.00666.01643-.00488.01464-.00622.01643-.00488.01465-.00666.01464-.00488.01643-.00666.01465-.00488.01464-.00666.01643-.00489.01465-.00621.01464-.00488.01643-.00666.01465-.00488.01642-.00666.01465-.00489.01465-.00666.01642-.00488.01465-.00621.01464-.00489.01643-.00666.01465-.00488.01642-.00488.01465-.00666.01465-.00488.01642-.00666.01465-.00488.01465-.00622.01642-.00488.01465-.00666.01465-.00488.01642-.00666.01465-.00488.01642-.00666.01465-.00489.01465-.00621.01642-.00488.01465-.00666.01465-.00488.01642-.00666.01465-.00489.01465-.00666.016-.004.01464-.00622.01643-.00488.01465-.00666.01464-.00488.016-.00666.0151-.00488.01464-.00666.016-.00489.0151-.00621.016-.00488.01464-.00666.0151-.00488c.00488-.00356.01109-.00356.016-.00666l.01464-.00489.0151-.00666.016-.00488.0151-.00621.016-.00489.01464-.00666.0151-.00488.016-.00666.01464-.00488.0151-.00666.016-.00488.01464-.00622.01465-.00488.01643-.00666.01464-.00488.01643-.00666.01465-.00488.01464-.00666.01643-.00488.01465-.00622.01464-.00488.01643-.00488.01465-.00666.01464-.00488.01643-.00666.01465-.00489.01642-.00666.01465-.00488.01465-.00621.01642-.00489.01465-.00666.01465-.00488.01642-.00666.01465-.00488.01642-.00666.01465-.00488.01465-.00622.01642-.00488.01465-.00666.01465-.00488.01642-.00666.01465-.00488.01465-.00666.01642-.00488.01465-.00622.01642-.00488.01465-.00666.01465-.00488c.00488-.00355.01154-.00355.01642-.00666l.01465-.00488.01465-.00666.01642-.00489.01465-.00621.01642-.00488.01465-.00666.01465-.00488.01642-.00666.01465-.00489.01465-.00666.01642-.00488.01465-.00621.01465-.00489.01642-.00666.01465-.00488.01643-.00666.01464-.00488.01465-.00666.01643-.00488.01464-.00622.01465-.00488.01643-.00666.01464-.00488.01465-.00666.01643-.00488.01464-.00666.01643-.00488.01464-.00622.01465-.00488.01643-.00488.01464-.00666.01465-.00488.01643-.00666.01464-.00489.016-.00666.01465-.00488.01509-.00621.016-.00489.01465-.00666.01509-.00488.016-.00666.01465-.00488.01509-.00666.016-.00488.01465-.00622.01643-.00488.01464-.00666.01465-.00488.01643-.00666.01464-.00488.0151-.00666.016-.00488.01464-.00622.01643-.00488.01465-.00666.01464-.00488c.00489-.00355.01154-.00355.01643-.00666l.01464-.00488.01465-.00666.01643-.00489.01464-.00621.01465-.00488.01643-.00666.01464-.00489.01643-.00665.01465-.00489.01464-.00666.01643-.00488.01465-.00621.01464-.00489.01643-.00666.01465-.00488.01464-.00666.01643-.00488.01465-.00666.01642-.00488.01465-.00622.01465-.00488.01642-.00666.01465-.00488.01465-.00666.01642-.00488.01465-.00666.01642-.00488.01465-.00489.0156-.00574.01643-.00489.01465-.00666.01464-.00488.01643-.00666.01465-.00488.01464-.00666.01643-.00488.01465-.00622.01642-.00532.01465-.00622c.00488,0,.008-.00355.01287-.00488a5.02,5.02,0,0,1,.98811,1.55363A1.86374,1.86374,0,0,0,396.28289,79.43969Z"/><path class="cls-6" d="M397.68072,77.65923a1.81155,1.81155,0,0,1-1.12306,1.67526l-.01509.00666-.01465.00488c-.00488.00311-.0111.00311-.01643.00622l-.01464.00488-.01465.00666-.016.00488c-.00488.00355-.01021.00355-.01509.00666l-.01465.00488-.016.00666-.01509.00488-.016.00622-.01465.00488-.01509.00666-.016.00488-.01465.00666-.01509.00489-.016.00665a.0275.0275,0,0,1-.01465.00489,1.86589,1.86589,0,0,1-2.15733-1.143,5.01887,5.01887,0,0,0-.98767-1.55364h0l.01642-.00666.01465-.00488.01465-.00666.01642-.00488.01465-.00622.01642-.00488L393.2462,76.7l.01465-.00488.01642-.00666.01465-.00488.01465-.00666.01642-.00488.01465-.00622.01465-.00488.01642-.00666.01465-.00488.01643-.00666.01464-.00489.01465-.00666.01643-.00488.01464-.00621.01465-.00488.01643-.00666.01464-.00489.01465-.00666.01643-.00488.01464-.00666.01643-.00488.01464-.00622.01465-.00488.01643-.00666.01464-.00488.01465-.00666.01643-.00488.01464-.00666.01643-.00488.01465-.00622.01464-.00488.01643-.00666.01465-.00488.01464-.00666.01643-.00488.01465-.00489.01642-.00666.01465-.00488.01465-.00621.01642-.00488.01465-.00666.01465-.00489.01642-.00666.01465-.00488.01465-.00666.01642-.00488.01465-.00622.01642-.00488.01465-.00666.01465-.00488.016-.00666.01509-.00488.01465-.00666.016-.00488.01509-.00622.01465-.00488.016-.00666.01509-.00488.016-.00666.01465-.00488.01509-.00666.016-.00489.01465-.00621.01509-.00488c.00488-.00355.0111-.00355.016-.00666l.01509-.00488.016-.00666.01465-.00489.01509-.00666.016-.00488.01465-.00621.01465-.00488.01642-.00666.01465-.00489.01512-.00709.01642-.00488.01465-.00666.01643-.00488.01464-.00622.01465-.00488.01643-.00666.01464-.00488.01465-.00666.01643-.00488.01464-.00666.01643-.00489.01465-.00621.01464-.00488.01643-.00666.01465-.00489.01464-.00488.01643-.00666.01464-.00488.01465-.00666.01643-.00488.01464-.00622.01643-.00532.01465-.00622.01464-.00488.01643-.00666.01465-.00488.01464-.00666.01643-.00488.01465-.00622.01464-.00533.01643-.00621.01465-.00488.01642-.00666.01465-.00488.01465-.00666.01642-.00489.01465-.00621.01465-.00533.01642-.00621.01465-.00489.01642-.00665.01465-.00489.01465-.00666.01642-.00488.01465-.00621.01465-.00533c.00488-.00311.01154-.00311.01642-.00622l.01465-.00488.01465-.00666.01642-.00488a1.78393,1.78393,0,0,1,.70668-.14382,1.80932,1.80932,0,0,1,1.5856.93573h0c.04439.09943.08345.20064.12251.30185a1.9621,1.9621,0,0,1,.07192.23349c.00488.02131.008.04439.01331.06525A1.72458,1.72458,0,0,1,397.68072,77.65923Z"/><path class="cls-7" d="M395.416,83.78454a1.85594,1.85594,0,0,1,.09011,2.62314q-.03746.04011-.07724.078a8.68883,8.68883,0,1,1,2.02328-9.70623,1.80935,1.80935,0,0,0-1.5856-.93395,1.78808,1.78808,0,0,0-.70712.14382l-.01643.00489-.01464.00666-.01465.00488-.016.00621-.01509.00488-.01465.00666-.016.00489-.01509.00666-.01465.00488-.016.00666-.01509.00488-.016.00621-.01465.00489-.01509.00666-.016.00488-.01465.00666-.01509.00488-.016.00666-.01509.00488-.016.00622-.01465.00488-.01509.00666-.016.00488-.01465.00666-.01465.00488-.01642.00666-.01465.00488-.01465.00622-.01642.00488-.01465.00666-.01643.00488-.01464.00666-.01465.00489-.01643.00666-.01464.00488-.01465.00488-.01643.00621-.01464.00533-.01465.00622-.01642.00488-.01465.00666-.01643.00488-.01464.00666-.01465.00488-.01643.00622-.01464.00532-.01465.00622-.01643.00488-.01464.00666-.01734.0031-.01465.00666-.01465.00488-.01642.00622-.01465.00532-.01465.00622-.01642.00488-.01465.00666-.01465.00488-.01642.00666-.01465.00488c-.00488.00311-.01154.00311-.01642.00622l-.01465.00533-.01465.00621-.01642.00488-.01465.00666-.01465.00489-.01642.00665-.01465.00489-.01642.00621-.01465.00533-.01465.00621-.01642.00489-.01465.00666-.01465.00488-.01642.00666-.01465.00488-.01465.00621-.01642.00533-.01465.00622-.01642.00488-.01465.00666-.01465.00488-.01642.00666-.01465.00488-.01465.00622-.01642.00532-.01465.00622-.01465.00488-.01642.00666-.01465.00488-.01643.00489-.01464.00665-.01465.00489-.01643.00666-.01464.00488-.01465.00621-.016.00489-.01509.00666-.016.00488-.01465.00666-.01509.00488-.016.00621-.01465.00533-.01509.00622-.016.00488-.01465.00666-.01642.00488-.01465.00666-.01465.00488-.01642.00666-.01465.00488-.01465.00622-.01642.00488-.01465.00666-.01509.00488-.016.00666-.01465.00488-.01643.00622-.01464.00533-.01465.00621-.01643.00488-.01464.00666-.01465.00489-.01643.00665-.01464.00489-.01465.00666-.01643.00488-.01464.00621-.01643.00489-.01465.00666-.01464.00488-.01643.00666h0a5.04216,5.04216,0,1,0-.21089,7.08012,1.8457,1.8457,0,0,1,1.274-.51581A1.76586,1.76586,0,0,1,395.416,83.78454Z"/><path class="cls-2" d="M415.7264,85.17438a1.65285,1.65285,0,0,0-1.71477-1.61312,3.04819,3.04819,0,0,0-1.69257.60548l-.11408.07457a4.38831,4.38831,0,0,1-2.30826.60237c-2.66737,0-4.39057-1.8435-4.39057-4.69553,0-2.87289,1.7232-4.72926,4.39057-4.72926a4.38706,4.38706,0,0,1,2.31536.6068l.1092.07058a3.05141,3.05141,0,0,0,1.69169.60459,1.65267,1.65267,0,0,0,1.71477-1.61356,2.5956,2.5956,0,0,0-1.222-2.03216l-.22195-.18821a7.68089,7.68089,0,0,0-4.55348-1.28152,8.54766,8.54766,0,1,0,0,17.09131,7.69432,7.69432,0,0,0,4.59832-1.31526l.17756-.15448A2.59652,2.59652,0,0,0,415.7264,85.17438Z"/><path class="cls-2" d="M427.64056,71.5854c-3.52142,0-8.73231,2.74283-8.73231,8.62978s5.10657,8.5299,8.73231,8.5299c3.61154,0,8.70036-2.64606,8.70036-8.529S431.14734,71.5854,427.64056,71.5854Zm0,13.32531c-2.40724,0-4.22233-2.0184-4.22233-4.69553,0-2.77879,1.77558-4.79629,4.22233-4.79629,2.40769,0,4.2219,2.06189,4.2219,4.79629C431.862,82.89231,430.04781,84.91071,427.64056,84.91071Z"/><path class="cls-2" d="M464.22556,74.91507c.04039-.13317.0981-.28365.15447-.43147a2.26669,2.26669,0,0,0,.19265-.67783,2.097,2.097,0,0,0-2.07408-2.1196q-.02276-.00025-.04552,0a2.02413,2.02413,0,0,0-1.871,1.13637l-3.10727,9.7404-3.90273-9.51224a2.195,2.195,0,0,0-4.06476.00267l-3.94046,9.50913-3.0722-9.74706a1.987,1.987,0,0,0-1.8688-1.12927,2.09651,2.09651,0,0,0-2.11916,2.07363q-.00026.023,0,.046a2.95173,2.95173,0,0,0,.25746.88069l.08612.222,4.221,11.88353a2.26025,2.26025,0,0,0,2.17509,1.7849,2.59375,2.59375,0,0,0,2.32069-1.80843l3.95378-8.87791,3.95067,8.8717a2.508,2.508,0,0,0,2.32379,1.81464,2.30605,2.30605,0,0,0,2.17287-1.77558Z"/><path class="cls-2" d="M479.23855,73.71477c-.43236-1.04449-2.78323-2.1307-4.80962-2.1307-3.72606,0-7.68694,3.00074-7.68694,8.56275,0,5.645,3.86767,8.59826,7.68518,8.59826a4.67181,4.67181,0,0,0,4.09671-1.91941l.52691-.91486.22993,1.03116a2.2898,2.2898,0,0,0,2.23014,1.76937,2.33732,2.33732,0,0,0,2.35575-2.2541V73.93938a2.39849,2.39849,0,0,0-2.35575-2.2541,2.30207,2.30207,0,0,0-2.28829,2.2541l.13317-.0981Zm.22194,6.43338c0,3.81262-2.5262,4.83-4.01992,4.83-1.986,0-4.122-1.50924-4.122-4.83,0-3.29548,2.136-4.79673,4.122-4.79673C477.37685,75.35142,479.46049,76.85267,479.46049,80.14815Z"/><path class="cls-2" d="M505.05286,79.57464c0-5.13055-2.0832-7.9555-5.86387-7.9555-3.30613,0-5.79816,2.51245-5.87584,3.46815V74.00774a2.28853,2.28853,0,1,0-4.57657,0V86.42262a2.28854,2.28854,0,0,0,4.57657,0V78.935a3.89257,3.89257,0,0,1,3.78421-3.58223c2.16932,0,3.41266,1.53943,3.41266,4.22322v6.84665a2.27149,2.27149,0,0,0,4.54284,0Z"/><path class="cls-2" d="M372.66993,85.13278a2.03844,2.03844,0,0,1-1.98633,2.19189,1.2525,1.2525,0,0,1-1.21582-.69775v.15576a.53944.53944,0,0,1-.541.53369.55253.55253,0,0,1-.55079-.53369V81.93942a.55266.55266,0,0,1,.55079-.5337.543.543,0,0,1,.5332.5337V83.417a.35357.35357,0,0,1,.00781.09033v.13965a1.29962,1.29962,0,0,1,1.21582-.69776A2.05572,2.05572,0,0,1,372.66993,85.13278Zm-1.0752,0a1.15184,1.15184,0,0,0-1.10839-1.26416,1.2823,1.2823,0,0,0,0,2.52832A1.14724,1.14724,0,0,0,371.59473,85.13278Z"/><path class="cls-2" d="M377.24122,83.458a.53724.53724,0,0,1-.06543.24609l-2.126,4.78614a.56159.56159,0,0,1-.51758.37744.47214.47214,0,0,1-.47558-.48389.68726.68726,0,0,1,.05664-.24658l.46875-1.06689-1.52735-3.36622a.68114.68114,0,0,1-.05761-.24609.48748.48748,0,0,1,.49316-.48437.56041.56041,0,0,1,.5166.37744l1.10059,2.54492,1.124-2.54492a.55121.55121,0,0,1,.50879-.37744A.48875.48875,0,0,1,377.24122,83.458Z"/></g></g></svg>