<svg id="b5733717-22aa-47b7-833b-29f41bedd2fb" data-name="Calque 1" xmlns="http://www.w3.org/2000/svg" viewBox="0 0 1218.44 1251.65"><path d="M2008.55,696.83a4,4,0,0,0-1.06.47c-.47.12-.83.23-1.18.35a4.66,4.66,0,0,0-1.06.47c-.35.12-.82.24-1.17.35a4.3,4.3,0,0,0-1.06.47l-1.06.36a4.61,4.61,0,0,0-1.18.47l-1,.35a4.47,4.47,0,0,0-1.06.47c-.47.12-.83.24-1.18.35a4.41,4.41,0,0,0-1,.47c-.36.12-.71.24-1.18.36l-1.06.35a4.3,4.3,0,0,1-1.06.47c-.35.12-.82.23-1.17.35a3.92,3.92,0,0,1-1.06.47l-1.06.36a5.1,5.1,0,0,1-1.18.47l-1.05.35a4.66,4.66,0,0,1-1.06.47c-.47.12-.83.23-1.18.35a4,4,0,0,1-1.06.47c-.35.12-.82.24-1.17.35a4.3,4.3,0,0,1-1.06.48l-1.06.35a5.1,5.1,0,0,1-1.18.47l-1,.35a4.26,4.26,0,0,1-1.06.47c-.36.12-.83.24-1.18.35a3.67,3.67,0,0,1-1.06.47c-.35.12-.7.24-1.17.36a4.66,4.66,0,0,1-1.06.47l-1.06.35a4.69,4.69,0,0,1-1.18.47l-1,.35a3.92,3.92,0,0,1-1.06.47c-.36.12-.83.24-1.18.36s-.7.23-1.06.47l-1.06.35c-.47.24-.82.24-1.17.47l-1.06.35a10,10,0,0,1-1.18.47l-1,.36c-.36.23-.71.23-1.06.47s-.83.23-1.18.35-.7.24-1.06.47l-1.06.35a5.21,5.21,0,0,0-1.17.47l-1.06.36a3.79,3.79,0,0,0-1.06.47,11.26,11.26,0,0,0-1.17.35,4,4,0,0,0-1.06.47c-.36.12-.83.24-1.18.35a4.66,4.66,0,0,0-1.06.47l-1.06.36a4.41,4.41,0,0,0-1.17.47l-1.06.35a4.1,4.1,0,0,0-1.06.47c-.47.12-.82.23-1.17.35a4.3,4.3,0,0,0-1.06.47c-.36.12-.71.24-1.18.36a3.92,3.92,0,0,0-1.06.47l-1.06.35a4.78,4.78,0,0,0-1.17.47l-1.06.35a4.47,4.47,0,0,0-1.06.47c-.35.12-.82.24-1.17.36l-1.06.35a3.79,3.79,0,0,1-1.18.47l-1.06.35a4,4,0,0,1-1.05.47c-.36.12-.83.24-1.18.35a3.79,3.79,0,0,1-1.06.47l-1.06.36a5.21,5.21,0,0,1-1.17.47l-1.06.35a4.1,4.1,0,0,1-1.06.47c-.35.12-.82.24-1.18.35a3.74,3.74,0,0,1-1,.47c-.36.12-.71.24-1.18.36a4.47,4.47,0,0,1-1.06.47l-1.06.35a4.78,4.78,0,0,1-1.17.47l-1.06.35a3.79,3.79,0,0,1-1.06.47c-.35.12-.82.24-1.17.36a4.66,4.66,0,0,1-1.06.47l-1.06.35a8.7,8.7,0,0,1-1.18.47l-1.06.35a4.41,4.41,0,0,1-1.17.47l-1.06.36c-.35.23-.71.23-1.06.47s-.82.23-1.17.35-.71.23-1.06.47l-1.06.35c-.35.24-.82.24-1.18.47l-1.06.35a11.66,11.66,0,0,1-1.17.48l-1.06.35c-.35.23-.71.23-1.06.47s-.82.23-1.17.35a4.3,4.3,0,0,0-1.06.47l-1.06.35a5.47,5.47,0,0,0-1.18.47l-1.06.36a4,4,0,0,0-1,.47c-.47.12-.83.23-1.18.35a4.47,4.47,0,0,0-1.06.47,11.26,11.26,0,0,1-1.17.35,4.3,4.3,0,0,0-1.06.47l-1.06.36a4.61,4.61,0,0,0-1.18.47l-1.06.35a4.41,4.41,0,0,0-1,.47c-.36.12-.83.24-1.18.35a4.47,4.47,0,0,0-1.06.47l-1.06.36a3.23,3.23,0,0,0-1.17.47l-1.06.35a5.47,5.47,0,0,0-1.18.47l-1.06.35a4.41,4.41,0,0,0-1.05.47c-.36.12-.83.24-1.18.36l-1.06.35a4.3,4.3,0,0,1-1.06.47c-.35.12-.82.23-1.17.35a3.92,3.92,0,0,1-1.06.47c-.35.12-.71.24-1.18.36a4.3,4.3,0,0,1-1.06.47l-1,.35a5.47,5.47,0,0,1-1.18.47l-1.06.35a4,4,0,0,1-1.06.47c-.35.12-.82.24-1.17.36a4.66,4.66,0,0,1-1.06.47c-.35.11-.71.23-1.18.35a4.3,4.3,0,0,1-1.06.47l-1,.35a5,5,0,0,1-1.18.47l-1.06.35a4.09,4.09,0,0,1-1,.48c-.36.11-.83.23-1.18.35a4.66,4.66,0,0,1-1.06.47l-1.06.35a4.69,4.69,0,0,1-1.18.47l-1.05.35a3.79,3.79,0,0,1-1.06.47c-.47.12-.82.24-1.18.36s-.7.23-1.05.47-.83.23-1.18.35-.71.24-1.06.47l-1.06.35c-.35.24-.82.24-1.17.47l-1.06.36c-.35.23-.71.23-1.06.47s-.82.23-1.18.35a4.41,4.41,0,0,0-1,.47c-.36.12-.71.24-1.18.35a4.47,4.47,0,0,0-1.06.47l-1.06.36a4.41,4.41,0,0,0-1.17.47l-1.06.35a4.1,4.1,0,0,0-1.06.47c-.35.12-.82.23-1.18.35a4.41,4.41,0,0,0-1,.47c-.36.12-.71.24-1.18.36a3.79,3.79,0,0,0-1.06.47l-1.06.35a4.78,4.78,0,0,0-1.17.47l-1.06.35a4.47,4.47,0,0,0-1.06.47c-.35.12-.82.24-1.18.35a4.09,4.09,0,0,0-1.05.48l-1.06.35a4.69,4.69,0,0,0-1.18.47l-1.06.35a9.18,9.18,0,0,0-1.17.47l-1.06.35-1.06.36a5.1,5.1,0,0,1-1.18.47l-1,.35a4.26,4.26,0,0,1-1.06.47c-.36.12-.83.24-1.18.35a3.67,3.67,0,0,1-1.06.47l-1.06.36a9.18,9.18,0,0,1-1.17.47l-1.06.35a4.69,4.69,0,0,1-1.18.47l-1,.35a3.92,3.92,0,0,1-1.06.47c-.36.12-.83.24-1.18.36a4.3,4.3,0,0,1-1.06.47l-1.06.35a5.21,5.21,0,0,1-1.17.47l-1.06.35a3.28,3.28,0,0,1-1.18.47l-1,.36a4.66,4.66,0,0,1-1.06.47c-.36.11-.83.23-1.18.35a4.3,4.3,0,0,1-1.06.47l-1.06.35a4.41,4.41,0,0,1-1.17.47l-1.06.36c-.35.23-.7.23-1.06.47a11.26,11.26,0,0,0-1.17.35c-.36.23-.71.23-1.06.47s-.71.23-1.18.35-.7.24-1.06.47l-1,.36c-.36.23-.83.23-1.18.47l-1.06.35a4,4,0,0,0-1,.47c-.36.12-.83.23-1.18.35a4.3,4.3,0,0,0-1.06.47,10.8,10.8,0,0,1-1.18.35,4.3,4.3,0,0,0-1.06.48l-1,.35a4.84,4.84,0,0,0-1.18.47l-1.06.35a4.41,4.41,0,0,0-1,.47c-.36.12-.83.24-1.18.35a4.47,4.47,0,0,0-1.06.47l-1.06.36a3.42,3.42,0,0,0-1.17.47l-1.06.35a5.28,5.28,0,0,0-1.18.47l-1.06.35a4.41,4.41,0,0,0-1,.47c-.36.12-.83.24-1.18.36a3.79,3.79,0,0,0-1.06.47l-1.06.35a5.21,5.21,0,0,0-1.17.47l-1.06.35c-.35.12-.71.24-1.18.36a4.3,4.3,0,0,1-1.06.47l-1,.35a5.47,5.47,0,0,1-1.18.47l-1.06.35a4,4,0,0,1-1.06.47c-.35.12-.82.24-1.17.36a4.66,4.66,0,0,1-1.06.47l-1.06.35a8.7,8.7,0,0,1-1.18.47l-1,.35a3.56,3.56,0,0,1-1.18.47l-1.06.35a4,4,0,0,1-1.06.48c-.35.11-.82.23-1.17.35a4.66,4.66,0,0,1-1.06.47l-1.06.35a4.69,4.69,0,0,1-1.18.47l-1.05.35a3.92,3.92,0,0,1-1.06.47c-.47.12-.83.24-1.18.36a4.3,4.3,0,0,1-1.06.47c-.35.12-.82.23-1.17.35a4.26,4.26,0,0,1-1.06.47l-1.06.35c-.35.24-.82.24-1.18.47l-1,.36c-.36.23-.71.23-1.06.47s-.83.23-1.18.35-.7.24-1.06.47a11.26,11.26,0,0,1-1.17.35c-.36.24-.71.24-1.06.47l-1.06.36a4.61,4.61,0,0,0-1.18.47l-1,.35a4.3,4.3,0,0,0-1.06.47c-.36.12-.83.24-1.18.35a4.66,4.66,0,0,0-1.06.47l-1.06.36a3.23,3.23,0,0,0-1.17.47l-1.06.35a8.42,8.42,0,0,0-1.18.47l-1,.35a4.3,4.3,0,0,0-1.06.47c-.35.12-.83.24-1.18.36a3.92,3.92,0,0,0-1.06.47l-1,.35a4.69,4.69,0,0,0-1.18.47l-1.06.35a9.86,9.86,0,0,0-1.18.47l-1,.36a3.67,3.67,0,0,0-1.06.47c-.35.11-.83.23-1.18.35a4.26,4.26,0,0,0-1.06.47l-1,.35c-.36.12-.83.24-1.18.35a3.79,3.79,0,0,1-1.06.47l-1.06.36a9.18,9.18,0,0,1-1.17.47l-1.06.35a3.47,3.47,0,0,1-1.18.47l-1.06.35a3.74,3.74,0,0,1-1,.47c-.36.12-.83.24-1.18.36a4.47,4.47,0,0,1-1.06.47l-1.06.35a4.78,4.78,0,0,1-1.17.47l-1.06.35a3.79,3.79,0,0,1-1.06.47c-.47.12-.82.24-1.18.36a4.41,4.41,0,0,1-1.05.47c-.36.11-.83.23-1.18.35a4.47,4.47,0,0,1-1.06.47l-1.06.35a4.41,4.41,0,0,1-1.17.47l-1.06.36a4.47,4.47,0,0,1-1.06.47c-.35.11-.82.23-1.18.35a4.41,4.41,0,0,1-1,.47c-.36.12-.71.23-1.18.35a4.1,4.1,0,0,1-1.06.47l-1.06.36c-.35.23-.82.23-1.17.47l-1.06.35c-.35.23-.71.23-1.06.47s-.82.23-1.18.35-.7.24-1,.47l-1.06.35a11.92,11.92,0,0,0-1.18.48l-1.06.35a4.78,4.78,0,0,0-1.17.47l-1.06.35a4.47,4.47,0,0,0-1.06.47c-.35.12-.82.24-1.18.35a4.41,4.41,0,0,0-1.05.47l-1.06.36a4.69,4.69,0,0,0-1.18.47l-1.06.35a9.18,9.18,0,0,0-1.17.47l-1.06.35a4.47,4.47,0,0,0-1.06.47c-.35.12-.82.24-1.18.36a3.74,3.74,0,0,0-1,.47l-1.06.35a5.28,5.28,0,0,0-1.18.47l-1.06.35a4.41,4.41,0,0,0-1,.47c-.48.12-.83.24-1.18.36a3.79,3.79,0,0,0-1.06.47c-.35.11-.7.23-1.18.35l-1,.35a3.92,3.92,0,0,1-1.06.47c-.35.12-.83.24-1.18.36a4.3,4.3,0,0,1-1.06.47l-1,.35a5.28,5.28,0,0,1-1.18.47l-1.06.35a3.21,3.21,0,0,1-1.18.47l-1,.36a4.47,4.47,0,0,1-1.06.47c-.35.11-.83.23-1.18.35a4.41,4.41,0,0,1-1.05.47l-1.06.35a4.84,4.84,0,0,1-1.18.47l-1.06.36a4.41,4.41,0,0,1-1,.47,10.8,10.8,0,0,0-1.18.35,4.47,4.47,0,0,1-1.06.47c-.35.12-.7.23-1.18.35a4,4,0,0,1-1,.47l-1.06.35a4.34,4.34,0,0,1-1.18.47l-1.06.36a4.41,4.41,0,0,1-1,.47c-.36.12-.83.23-1.18.35a4.1,4.1,0,0,1-1.06.47,11.26,11.26,0,0,1-1.17.35c-.36.24-.71.24-1.06.47l-1.06.36c-.35.23-.82.23-1.18.47l-1.06.35c-.35.24-.7.24-1,.47s-.83.24-1.18.35-.71.24-1.06.47l-1.06.36a4.41,4.41,0,0,0-1.17.47l-1.06.35a8,8,0,0,0-1.18.47l-1.06.35a4.41,4.41,0,0,0-1,.47c-.36.12-.83.24-1.18.36a3.79,3.79,0,0,0-1.06.47l-1.06.35a4.78,4.78,0,0,0-1.17.47l-1.06.35a4.47,4.47,0,0,0-1.06.47c-.47.12-.82.24-1.18.36a3.74,3.74,0,0,0-1,.47c-.36.11-.83.23-1.18.35a4.1,4.1,0,0,0-1.06.47l-1.06.35a5.21,5.21,0,0,0-1.17.47l-1.06.35a4.15,4.15,0,0,0-1.06.48c-.35.11-.82.23-1.18.35a4,4,0,0,0-1,.47c-.36.12-.71.23-1.18.35l-1.06.35a3.67,3.67,0,0,1-1.06.47c-.35.12-.82.24-1.17.36a4.66,4.66,0,0,1-1.06.47l-1.06.35a4.69,4.69,0,0,1-1.18.47l-1.05.35a3.92,3.92,0,0,1-1.06.47c-.47.12-.83.24-1.18.36a4.3,4.3,0,0,1-1.06.47c-.35.11-.7.23-1.17.35a128.81,128.81,0,0,1-50.92,10.35A130.63,130.63,0,0,1,1454,624.86a4.3,4.3,0,0,0,1.06-.47c.36-.12.71-.24,1.18-.35a4.66,4.66,0,0,0,1.06-.47l1.06-.36a4.78,4.78,0,0,0,1.17-.47l1.06-.35a4.47,4.47,0,0,0,1.06-.47c.35-.12.82-.24,1.17-.35l1.06-.36a4.66,4.66,0,0,1,1.06-.47c.47-.11.82-.23,1.18-.35a4,4,0,0,1,1.06-.47,11.26,11.26,0,0,1,1.17-.35,3.79,3.79,0,0,1,1.06-.47l1.06-.36a5.21,5.21,0,0,1,1.17-.47l1.06-.35a4.66,4.66,0,0,1,1.06-.47c.36-.12.82-.24,1.18-.35a3.67,3.67,0,0,1,1.06-.47l1.06-.36a8.63,8.63,0,0,1,1.17-.47l1.06-.35a5.21,5.21,0,0,1,1.17-.47l1.06-.35a4.26,4.26,0,0,1,1.06-.47c.36-.12.82-.24,1.18-.36a4.3,4.3,0,0,1,1.06-.47l1.06-.35a8.63,8.63,0,0,1,1.17-.47l1.06-.35a3.5,3.5,0,0,1,1.17-.47l1.06-.35a3.92,3.92,0,0,1,1.06-.47c.36-.12.82-.24,1.18-.36s.7-.23,1.06-.47l1.06-.35c.35-.24.82-.24,1.17-.47l1.06-.35c.35-.24.71-.24,1.06-.47s.82-.24,1.17-.36a3.67,3.67,0,0,0,1.06-.47c.36-.11.82-.23,1.18-.35a4.66,4.66,0,0,0,1.06-.47l1.06-.35a5.21,5.21,0,0,0,1.17-.47l1.06-.36a3.79,3.79,0,0,0,1.06-.47c.35-.11.82-.23,1.17-.35a4,4,0,0,0,1.06-.47,11.51,11.51,0,0,1,1.18-.35,4.66,4.66,0,0,0,1.06-.47l1-.36a4.34,4.34,0,0,0,1.18-.47l1.06-.35a4,4,0,0,0,1-.47c.36-.12.83-.23,1.18-.35a4.3,4.3,0,0,0,1.06-.47l1.06-.36a3.36,3.36,0,0,0,1.18-.47l1-.35c.35-.12.83-.23,1.18-.35a4,4,0,0,1,1.06-.47l1.05-.35a5.05,5.05,0,0,1,1.18-.48l1.06-.35a4.3,4.3,0,0,1,1.06-.47c.35-.12.82-.23,1.17-.35a4.26,4.26,0,0,1,1.06-.47,11.51,11.51,0,0,1,1.18-.35,3.67,3.67,0,0,1,1.06-.47l1-.36a5.47,5.47,0,0,1,1.18-.47l1.06-.35a4,4,0,0,1,1.06-.47c.35-.12.82-.24,1.17-.35a3.92,3.92,0,0,1,1.06-.47l1.06-.36a8.7,8.7,0,0,1,1.18-.47l1-.35a3.56,3.56,0,0,1,1.18-.47l1.06-.35a3.67,3.67,0,0,1,1.06-.47c.35-.12.82-.24,1.17-.36a4.66,4.66,0,0,1,1.06-.47l1.06-.35a4.69,4.69,0,0,1,1.18-.47l1-.35a10.73,10.73,0,0,1,1.18-.47l1.06-.36c.35-.23.7-.23,1.06-.47s.82-.23,1.17-.35.71-.23,1.06-.47l1.06-.35c.35-.24.82-.24,1.18-.47l1-.36c.36-.23.71-.23,1.06-.47s.83-.23,1.18-.35a4.26,4.26,0,0,0,1.06-.47c.35-.12.7-.23,1.17-.35a4.3,4.3,0,0,0,1.06-.47l1.06-.36a4.61,4.61,0,0,0,1.18-.47l1-.35a4,4,0,0,0,1.06-.47c.36-.12.83-.23,1.18-.35a4.66,4.66,0,0,0,1.06-.47l1.06-.35a3.63,3.63,0,0,0,1.17-.47l1.06-.36a5,5,0,0,0,1.18-.47l1-.35a4.3,4.3,0,0,0,1.06-.47c.36-.12.83-.24,1.18-.35a4.66,4.66,0,0,0,1.06-.47l1.06-.36a4.41,4.41,0,0,0,1.17-.47l1.06-.35a10.8,10.8,0,0,1,1.18-.35,3.74,3.74,0,0,1,1.05-.47l1.06-.36a5.28,5.28,0,0,1,1.18-.47l1.06-.35a4.41,4.41,0,0,1,1-.47c.36-.12.83-.23,1.18-.35a3.79,3.79,0,0,1,1.06-.47l1.06-.36a9.18,9.18,0,0,1,1.17-.47l1.06-.35a3.69,3.69,0,0,1,1.18-.47l1.06-.35a4,4,0,0,1,1-.47c.36-.12.83-.24,1.18-.36a4.3,4.3,0,0,1,1.06-.47l1.06-.35a5.21,5.21,0,0,1,1.17-.47l1.06-.35a4.1,4.1,0,0,1,1.06-.47c.47-.12.82-.24,1.17-.35a4.3,4.3,0,0,1,1.06-.48c.36-.11.83-.23,1.18-.35a4.3,4.3,0,0,1,1.06-.47l1.06-.35a4.78,4.78,0,0,1,1.17-.47l1.06-.35c.35-.24.71-.24,1.06-.47s.82-.24,1.17-.36.71-.23,1.06-.47.71-.23,1.18-.35.7-.24,1.06-.47l1.06-.35c.35-.24.82-.24,1.17-.47l1.06-.36a3.79,3.79,0,0,0,1.06-.47c.35-.12.82-.23,1.17-.35a4.3,4.3,0,0,0,1.06-.47c.36-.12.71-.24,1.18-.35A4.66,4.66,0,0,0,1628,560l1.06-.36a4.41,4.41,0,0,0,1.17-.47l1.06-.35a4.47,4.47,0,0,0,1.06-.47c.35-.12.82-.24,1.17-.35a4.3,4.3,0,0,0,1.06-.47l1.06-.36a3.36,3.36,0,0,0,1.18-.47l1.06-.35a7.9,7.9,0,0,0,1.17-.47l1.06-.35a4.47,4.47,0,0,0,1.06-.47c.35-.12.82-.24,1.17-.36a3.67,3.67,0,0,0,1.06-.47l1.06-.35c.35-.12.82-.23,1.18-.35a4,4,0,0,1,1.06-.47l1-.35a8.15,8.15,0,0,1,1.18-.48l1.06-.35a5.21,5.21,0,0,1,1.17-.47l1.06-.35a4.26,4.26,0,0,1,1.06-.47c.35-.12.82-.24,1.18-.35a3.67,3.67,0,0,1,1.06-.47l1-.36a5.47,5.47,0,0,1,1.18-.47l1.06-.35a3.42,3.42,0,0,1,1.17-.47l1.06-.35a3.92,3.92,0,0,1,1.06-.47c.35-.12.82-.24,1.18-.36a4.3,4.3,0,0,1,1.06-.47l1.05-.35a4.84,4.84,0,0,1,1.18-.47l1.06-.35a3.74,3.74,0,0,1,1-.47c.48-.12.83-.24,1.18-.36a4.47,4.47,0,0,1,1.06-.47c.35-.11.7-.23,1.18-.35a4.41,4.41,0,0,1,1.05-.47l1.06-.35c.35-.24.83-.24,1.18-.47l1.06-.36c.35-.23.7-.23,1-.47s.83-.23,1.18-.35.71-.23,1.06-.47.7-.23,1.18-.35.7-.24,1-.47l1.06-.36a4.47,4.47,0,0,0,1.18-.47l1.06-.35a4,4,0,0,0,1-.47c.36-.12.83-.23,1.18-.35a4.47,4.47,0,0,0,1.06-.47l1.06-.35a4.82,4.82,0,0,0,1.17-.48l1.06-.35a8,8,0,0,0,1.18-.47l1.06-.35a4.41,4.41,0,0,0,1.05-.47c.36-.12.83-.24,1.18-.35a4.47,4.47,0,0,0,1.06-.47l1.06-.36a4.78,4.78,0,0,0,1.17-.47l1.06-.35a4.47,4.47,0,0,0,1.06-.47c.47-.12.82-.24,1.18-.35a4.41,4.41,0,0,0,1-.47c.36-.12.83-.24,1.18-.36a3.79,3.79,0,0,0,1.06-.47l1.06-.35c.35-.12.82-.24,1.17-.35a3.92,3.92,0,0,1,1.06-.47l1.06-.36a5.1,5.1,0,0,1,1.18-.47l1-.35A3.79,3.79,0,0,1,1714,528l1.06-.35a3.67,3.67,0,0,1,1.06-.47c.35-.12.82-.24,1.17-.36a4.66,4.66,0,0,1,1.06-.47l1.06-.35a5.1,5.1,0,0,1,1.18-.47l1-.35a3.92,3.92,0,0,1,1.06-.47c.47-.12.83-.24,1.18-.36a4.3,4.3,0,0,1,1.06-.47c.35-.11.82-.23,1.17-.35a4.66,4.66,0,0,1,1.06-.47l1.06-.35a4.69,4.69,0,0,1,1.18-.47l1-.35a4.3,4.3,0,0,1,1.06-.48c.35-.11.83-.23,1.18-.35s.7-.23,1.06-.47.7-.23,1.17-.35.71-.24,1.06-.47l1.06-.35c.35-.24.82-.24,1.18-.47l1-.36c.36-.23.71-.23,1.06-.47s.83-.23,1.18-.35.7-.24,1.06-.47l1-.35a3.6,3.6,0,0,0,1.18-.47l1.06-.36a7.34,7.34,0,0,0,1.18-.47l1-.35a4.47,4.47,0,0,0,1.06-.47c.35-.12.83-.24,1.18-.35a4.41,4.41,0,0,0,1-.47l1.06-.36a4.34,4.34,0,0,0,1.18-.47l1.06-.35a4.26,4.26,0,0,0,1.06-.47c.47-.12.82-.24,1.17-.35a4.47,4.47,0,0,0,1.06-.47c.35-.12.82-.24,1.18-.36a3.74,3.74,0,0,0,1-.47l1.06-.35a4.84,4.84,0,0,0,1.18-.47l1.06-.35a4.66,4.66,0,0,0,1.06-.47c.35-.12.82-.24,1.17-.36a3.79,3.79,0,0,0,1.06-.47c.35-.11.71-.23,1.17-.35l1.06-.35a4.26,4.26,0,0,1,1.06-.47c.36-.12.82-.24,1.18-.35a4,4,0,0,1,1.06-.48l1.06-.35a5.21,5.21,0,0,1,1.17-.47l1.06-.35a4.1,4.1,0,0,1,1.06-.47c.47-.12.82-.24,1.17-.35a3.92,3.92,0,0,1,1.06-.47c.36-.12.71-.24,1.18-.36a4.3,4.3,0,0,1,1.06-.47c.35-.12.59-.23.94-.35a361.61,361.61,0,0,1,71.14,112C1878.37,677,1944,712.35,2008.55,696.83Z" transform="translate(-890.78 -124.18)" style="fill:#9bcea4"/><path d="M2109.22,568.62a130.48,130.48,0,0,1-80.91,120.77,4.41,4.41,0,0,1-1,.47l-1.06.35c-.35.24-.82.24-1.18.47l-1,.35c-.36.24-.71.24-1.06.48s-.83.23-1.18.35-.7.23-1.06.47l-1.06.35c-.47.24-.82.24-1.17.47l-1.06.35a9.24,9.24,0,0,0-1.18.47l-1,.36a4,4,0,0,0-1.06.47c-.36.12-.83.23-1.18.35a4.66,4.66,0,0,0-1.06.47l-1.06.35a5.21,5.21,0,0,0-1.17.47,1.88,1.88,0,0,1-1.06.36c-64.56,15.52-130.18-19.88-155.34-82.32a361.45,361.45,0,0,0-71.15-112h.12a4.69,4.69,0,0,1,1.18-.47l1.05-.35a3.79,3.79,0,0,1,1.06-.47c.35-.12.83-.24,1.18-.36a4.41,4.41,0,0,1,1-.47c.36-.12.71-.23,1.18-.35a4.1,4.1,0,0,1,1.06-.47l1.06-.35a4.41,4.41,0,0,1,1.17-.47l1.06-.36a4.47,4.47,0,0,1,1.06-.47c.35-.12.82-.23,1.17-.35s.71-.24,1.06-.47l1.06-.35c.47-.24.82-.24,1.18-.47l1.06-.36c.35-.23.7-.23,1.17-.47l1.06-.35c.35-.24.71-.24,1.06-.47s.82-.24,1.17-.35a4.3,4.3,0,0,0,1.06-.47l1.06-.36a4.47,4.47,0,0,0,1.18-.47l1.06-.35a4.26,4.26,0,0,0,1.06-.47c.46-.12.82-.23,1.17-.35a4.47,4.47,0,0,0,1.06-.47c.35-.12.82-.24,1.17-.36a3.67,3.67,0,0,0,1.06-.47l1.06-.35a4.84,4.84,0,0,0,1.18-.47l1.06-.35a4.66,4.66,0,0,0,1.06-.47c.46-.12.82-.24,1.17-.35a4.15,4.15,0,0,0,1.06-.48c.35-.11.71-.23,1.17-.35a4,4,0,0,0,1.06-.47l1.06-.35a5.28,5.28,0,0,0,1.18-.47l1.06-.35a4.66,4.66,0,0,0,1.06-.47c.35-.12.82-.24,1.17-.36l1.06-.35a3.5,3.5,0,0,1,1.17-.47l1.06-.35a3.92,3.92,0,0,1,1.06-.47c.36-.12.82-.24,1.18-.36a4.3,4.3,0,0,1,1.06-.47l1.06-.35a5.21,5.21,0,0,1,1.17-.47l1.06-.35a3.79,3.79,0,0,1,1.06-.47c.35-.12.82-.24,1.17-.36a4.66,4.66,0,0,1,1.06-.47c.36-.11.71-.23,1.18-.35a4.3,4.3,0,0,1,1.06-.47l1.06-.35a4.41,4.41,0,0,1,1.17-.47l1.06-.36a4.47,4.47,0,0,1,1.06-.47c.35-.11.82-.23,1.17-.35a4.66,4.66,0,0,1,1.06-.47l1.06-.35a7.55,7.55,0,0,1,1.18-.47l1-.36a5.47,5.47,0,0,1,1.18-.47L1856,475c.35-.23.7-.23,1.06-.47s.82-.23,1.17-.35.71-.24,1.06-.47l1.06-.35c.35-.24.82-.24,1.18-.48l1-.35c.36-.23.71-.23,1.18-.47l1.06-.35a4.66,4.66,0,0,0,1.06-.47c.35-.12.82-.24,1.17-.35a4.47,4.47,0,0,0,1.06-.47l1.06-.36a4.78,4.78,0,0,0,1.17-.47l1.06-.35a4.3,4.3,0,0,0,1.06-.47c.47-.12.82-.24,1.18-.35a4.66,4.66,0,0,0,1.06-.47c.35-.12.7-.24,1.17-.36a3.79,3.79,0,0,0,1.06-.47l1.06-.35a5.21,5.21,0,0,0,1.17-.47l1.06-.35a4.3,4.3,0,0,0,1.06-.47c.35-.12.82-.24,1.18-.36a3.92,3.92,0,0,0,1.06-.47c.35-.11.7-.23,1.17-.35a4.47,4.47,0,0,0,1.06-.47l1.06-.35A5.21,5.21,0,0,0,1888,463l1.06-.36,1.06-.35a5.1,5.1,0,0,1,1.18-.47l1.06-.35a4,4,0,0,1,1-.47c.36-.12.83-.24,1.18-.36a4.47,4.47,0,0,1,1.06-.47c.35-.11.7-.23,1.17-.35a4.66,4.66,0,0,1,1.06-.47L1899,459a4.69,4.69,0,0,1,1.18-.47l1.06-.35a3.74,3.74,0,0,1,1-.47c.36-.12.83-.24,1.18-.36a4.47,4.47,0,0,1,1.06-.47l1.06-.35a7.9,7.9,0,0,1,1.17-.47l1.06-.35a4.34,4.34,0,0,1,1.18-.47l1.06-.36a4.41,4.41,0,0,1,1-.47c.36-.11.83-.23,1.18-.35a4.1,4.1,0,0,1,1.06-.47l1.06-.35a4.41,4.41,0,0,1,1.17-.47l1.06-.36c.35-.23.71-.23,1.18-.47l1.06-.35c.35-.23.7-.23,1.05-.47s.83-.24,1.18-.35.71-.24,1.06-.47l1.06-.36c.35-.23.82-.23,1.17-.47l1.06-.35a4.26,4.26,0,0,0,1.06-.47c.47-.12.82-.23,1.18-.35A128.55,128.55,0,0,1,1978.57,438a130.29,130.29,0,0,1,114.19,67.38v.12c3,7.17,6,14.46,8.82,21.75a145.3,145.3,0,0,1,5.17,16.82c.35,1.53.59,3.18.94,4.7A123.44,123.44,0,0,1,2109.22,568.62Z" transform="translate(-890.78 -124.18)" style="fill:#49b170"/><path d="M1946.1,1009.75c56.21,52.45,56.69,141.58.94,194.5-112.18,106.31-263.65,171.57-430.4,171.57-354.08,0-639.36-294-625.37-651.12,12.7-322.33,274-585.28,596.21-599.86C1758.66,112.49,1994,272.9,2092.75,505.38A130.31,130.31,0,0,0,1978.56,438a128.64,128.64,0,0,0-50.92,10.35c-.35.12-.71.23-1.18.35a4,4,0,0,1-1,.47l-1.06.35c-.36.24-.83.24-1.18.47l-1.06.36c-.35.23-.7.23-1.06.47s-.82.23-1.17.35-.71.24-1.06.47l-1.06.35c-.47.24-.82.24-1.17.47l-1.06.36a4.34,4.34,0,0,0-1.18.47l-1.06.35a4.66,4.66,0,0,0-1.06.47c-.35.12-.82.24-1.17.35a4.47,4.47,0,0,0-1.06.47l-1.06.36a4.41,4.41,0,0,0-1.17.47l-1.06.35a8,8,0,0,0-1.18.47l-1.06.35a4.41,4.41,0,0,0-1,.47c-.36.12-.83.24-1.18.36a3.79,3.79,0,0,0-1.06.47l-1,.35a4.69,4.69,0,0,0-1.18.47l-1.06.35a4.66,4.66,0,0,0-1.06.47c-.47.12-.82.24-1.18.36a3.74,3.74,0,0,0-1.05.47c-.35.11-.83.23-1.18.35a4.1,4.1,0,0,0-1.06.47l-1,.35a5.1,5.1,0,0,0-1.18.47l-1.06.35-1.06.36a5.21,5.21,0,0,1-1.17.47l-1.06.35a4.1,4.1,0,0,1-1.06.47c-.47.12-.82.24-1.18.35a3.74,3.74,0,0,1-1,.47c-.36.12-.83.24-1.18.36a4.47,4.47,0,0,1-1.06.47l-1.06.35a5.21,5.21,0,0,1-1.17.47l-1.06.35a3.79,3.79,0,0,1-1.06.47c-.47.12-.82.24-1.18.36a4.41,4.41,0,0,1-1,.47c-.36.11-.71.23-1.18.35a4.47,4.47,0,0,1-1.06.47l-1.06.35a4.41,4.41,0,0,1-1.17.47l-1.06.36a4.47,4.47,0,0,1-1.06.47c-.35.11-.82.23-1.18.35a4.41,4.41,0,0,1-1.05.47l-1.06.35c-.47.24-.83.24-1.18.47l-1.06.36c-.35.23-.82.23-1.17.47l-1.06.35c-.35.23-.71.23-1.06.47s-.82.23-1.18.35-.7.24-1,.47l-1.06.35a4.73,4.73,0,0,0-1.18.48l-1.06.35a7.9,7.9,0,0,0-1.17.47l-1.06.35a4.47,4.47,0,0,0-1.06.47c-.35.12-.82.24-1.18.35a4.41,4.41,0,0,0-1,.47l-1.06.36a4.69,4.69,0,0,0-1.18.47l-1.06.35a4.66,4.66,0,0,0-1.06.47c-.47.12-.82.24-1.17.35a4.47,4.47,0,0,0-1.06.47c-.35.12-.82.24-1.18.36a3.74,3.74,0,0,0-1,.47l-1.06.35a5.1,5.1,0,0,0-1.18.47l-1.06.35a4.66,4.66,0,0,0-1.06.47c-.35.12-.82.24-1.17.36a3.79,3.79,0,0,0-1.06.47l-1.06.35a3.63,3.63,0,0,0-1.17.47l-1.06.35c-.35.12-.83.24-1.18.36a4.3,4.3,0,0,1-1.06.47l-1,.35a5.47,5.47,0,0,1-1.18.47l-1.06.35a3.67,3.67,0,0,1-1.06.47c-.47.12-.82.24-1.17.36a4.66,4.66,0,0,1-1.06.47c-.35.11-.71.23-1.18.35a4.3,4.3,0,0,1-1.06.47l-1,.35a5,5,0,0,1-1.18.47l-1.06.35a4,4,0,0,1-1.06.48c-.35.11-.82.23-1.17.35a4.47,4.47,0,0,1-1.06.47c-.35.12-.71.23-1.18.35a4,4,0,0,1-1,.47l-1.06.35a4.61,4.61,0,0,1-1.18.47l-1.06.36a4.3,4.3,0,0,1-1.06.47c-.35.12-.82.23-1.17.35s-.71.24-1.06.47l-1.06.35c-.47.24-.82.24-1.17.47l-1.06.36c-.36.23-.71.23-1.18.47l-1.06.35c-.35.23-.7.23-1.06.47s-.82.24-1.17.35a4.47,4.47,0,0,0-1.06.47l-1.06.36a4.41,4.41,0,0,0-1.17.47l-1.06.35a4,4,0,0,0-1.06.47c-.47.12-.82.23-1.18.35a4.66,4.66,0,0,0-1.06.47c-.35.12-.82.24-1.17.36a3.79,3.79,0,0,0-1.06.47l-1.06.35a4.78,4.78,0,0,0-1.17.47h-.12a361.65,361.65,0,0,0-265.53-115.71c-209,0-376.66,176.62-362.08,388.77,12.23,175.8,152.4,319.5,328,335.61,110.53,10,211.9-29.51,284.58-98.89a132.86,132.86,0,0,1,91.72-37.16A127,127,0,0,1,1946.1,1009.75Z" transform="translate(-890.78 -124.18)" style="fill:#009640"/></svg>