<svg id="babb04d9-8495-47df-b0dd-e41aef86d309" data-name="Calque 1" xmlns="http://www.w3.org/2000/svg" viewBox="0 0 1412.65 1451.14"><path d="M1340.52,688.71a4.75,4.75,0,0,0-1.23.55c-.54.13-1,.27-1.36.41a4.71,4.71,0,0,0-1.23.54c-.41.14-1,.27-1.36.41a4.75,4.75,0,0,0-1.23.55l-1.22.4a6,6,0,0,0-1.37.55l-1.22.41a4.71,4.71,0,0,0-1.23.54c-.55.14-1,.28-1.37.41a5.23,5.23,0,0,0-1.22.55c-.41.14-.82.27-1.37.41l-1.22.41a4.71,4.71,0,0,1-1.23.54c-.41.14-1,.27-1.36.41a5.12,5.12,0,0,1-1.23.55l-1.23.41a5.93,5.93,0,0,1-1.36.54l-1.23.41a5.12,5.12,0,0,1-1.23.55c-.54.13-1,.27-1.36.4a4.75,4.75,0,0,1-1.23.55c-.4.14-1,.27-1.36.41a4.71,4.71,0,0,1-1.23.54l-1.22.41a5.61,5.61,0,0,1-1.37.55l-1.22.41a4.71,4.71,0,0,1-1.23.54c-.41.14-1,.28-1.36.41a5.12,5.12,0,0,1-1.23.55c-.41.13-.82.27-1.37.41a4.85,4.85,0,0,1-1.22.54l-1.23.41a6,6,0,0,1-1.36.55l-1.23.4a4.75,4.75,0,0,1-1.23.55c-.41.14-1,.27-1.36.41s-.82.27-1.23.54l-1.22.41c-.55.28-1,.28-1.37.55l-1.22.41a14,14,0,0,1-1.37.54l-1.22.41c-.41.27-.82.27-1.23.55-.41.13-1,.27-1.36.41s-.82.27-1.23.54l-1.23.41a5.55,5.55,0,0,0-1.36.55l-1.23.41a4.71,4.71,0,0,0-1.23.54c-.54.14-1,.27-1.36.41a5.07,5.07,0,0,0-1.23.54c-.41.14-.95.28-1.36.41a5.12,5.12,0,0,0-1.23.55l-1.23.41a5.66,5.66,0,0,0-1.36.54l-1.22.41a5.12,5.12,0,0,0-1.23.55,12.66,12.66,0,0,0-1.36.41,4.71,4.71,0,0,0-1.23.54c-.41.14-.82.27-1.36.41a4.75,4.75,0,0,0-1.23.55l-1.23.41a5.51,5.51,0,0,0-1.36.54l-1.23.41a4.75,4.75,0,0,0-1.23.55l-1.36.4-1.23.41a4,4,0,0,1-1.36.55l-1.23.41a4.71,4.71,0,0,1-1.23.54c-.41.14-.95.28-1.36.41a4.75,4.75,0,0,1-1.23.55l-1.22.41a5.57,5.57,0,0,1-1.37.54l-1.22.41a5.12,5.12,0,0,1-1.23.55c-.41.13-1,.27-1.36.41a5.07,5.07,0,0,1-1.23.54c-.41.14-.82.27-1.36.41a5.12,5.12,0,0,1-1.23.55l-1.23.4a5.55,5.55,0,0,1-1.36.55l-1.23.41a4.71,4.71,0,0,1-1.23.54c-.4.14-1,.28-1.36.41a4.75,4.75,0,0,1-1.23.55l-1.22.41a9.1,9.1,0,0,1-1.37.54l-1.22.41a6,6,0,0,1-1.37.55l-1.22.41c-.41.27-.82.27-1.23.54s-1,.27-1.36.41-.82.27-1.23.55l-1.23.4c-.41.28-1,.28-1.36.55l-1.23.41c-.41.27-.82.27-1.36.54l-1.23.41c-.41.28-.82.28-1.23.55s-1,.27-1.36.41a4.71,4.71,0,0,0-1.23.54l-1.22.41a6,6,0,0,0-1.37.55l-1.23.41a4.8,4.8,0,0,0-1.22.54c-.55.14-1,.27-1.37.41a4.85,4.85,0,0,0-1.22.55c-.41.13-.82.27-1.36.41a4.71,4.71,0,0,0-1.23.54l-1.23.41a5.55,5.55,0,0,0-1.36.55l-1.23.4a5.12,5.12,0,0,0-1.23.55c-.41.14-1,.27-1.36.41a4.71,4.71,0,0,0-1.23.54l-1.22.41a4.23,4.23,0,0,0-1.37.55l-1.22.41a5.57,5.57,0,0,0-1.37.54l-1.23.41a4.7,4.7,0,0,0-1.22.55c-.41.13-1,.27-1.37.41l-1.22.4a4.75,4.75,0,0,1-1.23.55c-.41.14-1,.27-1.36.41a5.12,5.12,0,0,1-1.23.55c-.41.13-.82.27-1.36.4a4.75,4.75,0,0,1-1.23.55l-1.23.41a5.51,5.51,0,0,1-1.36.54l-1.23.41a4.7,4.7,0,0,1-1.22.55c-.41.13-1,.27-1.37.41a4.8,4.8,0,0,1-1.22.54,13.65,13.65,0,0,1-1.37.41,5.12,5.12,0,0,1-1.23.55l-1.22.41a6,6,0,0,1-1.37.54l-1.22.41a5.12,5.12,0,0,1-1.23.55c-.41.13-1,.27-1.36.4a4.75,4.75,0,0,1-1.23.55l-1.23.41a5.51,5.51,0,0,1-1.36.54l-1.23.41a4.75,4.75,0,0,1-1.23.55c-.54.13-1,.27-1.36.41s-.82.27-1.23.54-1,.28-1.36.41-.82.27-1.22.55l-1.23.41c-.41.27-1,.27-1.37.54l-1.22.41c-.41.27-.82.27-1.23.55s-1,.27-1.37.4a5.23,5.23,0,0,0-1.22.55c-.41.14-.82.27-1.37.41a5.18,5.18,0,0,0-1.22.54l-1.23.41a6,6,0,0,0-1.36.55l-1.23.41a4.71,4.71,0,0,0-1.23.54c-.41.14-.95.28-1.36.41a5.12,5.12,0,0,0-1.23.55c-.41.13-.81.27-1.36.41a4.71,4.71,0,0,0-1.23.54l-1.22.41a5.61,5.61,0,0,0-1.37.55l-1.22.41a4.71,4.71,0,0,0-1.23.54c-.41.14-1,.27-1.37.41a4.85,4.85,0,0,0-1.22.55l-1.23.4a6,6,0,0,0-1.36.55l-1.23.41a8.64,8.64,0,0,0-1.36.54l-1.23.41-1.23.41a6,6,0,0,1-1.36.55l-1.23.41a4.8,4.8,0,0,1-1.22.54c-.41.14-1,.27-1.37.41a5.23,5.23,0,0,1-1.22.55l-1.23.4a9.21,9.21,0,0,1-1.36.55l-1.23.41a5.57,5.57,0,0,1-1.37.54l-1.22.41a4.75,4.75,0,0,1-1.23.55c-.41.14-1,.27-1.36.41a4.71,4.71,0,0,1-1.23.54l-1.23.41a5.79,5.79,0,0,1-1.36.55l-1.23.41a4,4,0,0,1-1.36.54l-1.23.41a5.12,5.12,0,0,1-1.23.55c-.41.13-1,.27-1.36.41a5.07,5.07,0,0,1-1.23.54l-1.22.41a6,6,0,0,1-1.37.55l-1.22.4c-.41.28-.82.28-1.23.55s-1,.27-1.36.41-.82.27-1.23.54-.82.28-1.36.41-.82.28-1.23.55l-1.23.41c-.41.27-.95.27-1.36.54l-1.23.41a4.55,4.55,0,0,0-1.22.55c-.42.13-1,.27-1.37.41a4.71,4.71,0,0,0-1.23.54c-.41.14-.81.27-1.36.41a4.75,4.75,0,0,0-1.23.55l-1.22.4a6,6,0,0,0-1.37.55l-1.22.41a4.75,4.75,0,0,0-1.23.55l-1.36.4a5.12,5.12,0,0,0-1.23.55l-1.23.41a4,4,0,0,0-1.36.54l-1.23.41a6,6,0,0,0-1.36.55l-1.23.41a4.51,4.51,0,0,0-1.22.54c-.42.14-1,.28-1.37.41a4.75,4.75,0,0,0-1.23.55l-1.23.41a5.66,5.66,0,0,0-1.36.54l-1.23.41c-.4.14-.81.27-1.36.41a4.8,4.8,0,0,1-1.22.54l-1.23.41a5.71,5.71,0,0,1-1.36.55l-1.23.41a4.71,4.71,0,0,1-1.23.54c-.41.14-1,.28-1.36.41a5.12,5.12,0,0,1-1.23.55l-1.23.41a8.64,8.64,0,0,1-1.36.54l-1.23.41a4.17,4.17,0,0,1-1.36.55l-1.23.41a4.91,4.91,0,0,1-1.23.54c-.4.14-.95.27-1.36.41a4.71,4.71,0,0,1-1.23.54l-1.22.41a5.61,5.61,0,0,1-1.37.55l-1.22.41a4.71,4.71,0,0,1-1.23.54c-.54.14-.95.28-1.36.41a4.75,4.75,0,0,1-1.23.55c-.41.13-1,.27-1.36.41a4.71,4.71,0,0,1-1.23.54l-1.23.41c-.41.27-1,.27-1.36.55l-1.23.41c-.41.27-.81.27-1.22.54s-1,.27-1.37.41-.81.27-1.23.55-.81.27-1.36.4-.82.28-1.23.55l-1.22.41a6,6,0,0,0-1.37.54l-1.22.41a5.12,5.12,0,0,0-1.23.55c-.41.13-1,.27-1.36.41a4.71,4.71,0,0,0-1.23.54l-1.23.41a4,4,0,0,0-1.36.55l-1.23.41a8.64,8.64,0,0,0-1.36.54l-1.23.41a4.55,4.55,0,0,0-1.22.55c-.41.13-1,.27-1.37.4a5.12,5.12,0,0,0-1.23.55l-1.22.41a6,6,0,0,0-1.37.54l-1.22.41a10.53,10.53,0,0,0-1.37.55l-1.22.41a4.71,4.71,0,0,0-1.23.54c-.41.14-1,.28-1.37.41a4.85,4.85,0,0,0-1.22.55l-1.23.41c-.41.13-1,.27-1.36.41a4.71,4.71,0,0,1-1.23.54l-1.23.41a9.93,9.93,0,0,1-1.36.55l-1.23.4a4,4,0,0,1-1.36.55l-1.23.41a4.51,4.51,0,0,1-1.22.54c-.41.14-1,.28-1.37.41a4.7,4.7,0,0,1-1.22.55l-1.23.41a5.66,5.66,0,0,1-1.36.54l-1.23.41a5.12,5.12,0,0,1-1.23.55,13.4,13.4,0,0,0-1.36.41,4.71,4.71,0,0,1-1.23.54c-.41.14-1,.27-1.36.41a5.12,5.12,0,0,1-1.23.55l-1.23.41a5.93,5.93,0,0,1-1.36.54l-1.23.41a4.8,4.8,0,0,1-1.22.54c-.41.14-1,.28-1.37.41a4.7,4.7,0,0,1-1.22.55c-.41.14-.82.27-1.37.41a4.8,4.8,0,0,1-1.22.54l-1.23.41c-.41.28-1,.28-1.36.55l-1.23.41c-.41.27-.82.27-1.23.54s-.95.28-1.36.41-.82.27-1.23.55l-1.23.41c-.54.27-1,.27-1.36.54l-1.23.41a5.55,5.55,0,0,0-1.36.55l-1.23.4a5.12,5.12,0,0,0-1.23.55c-.4.14-.95.27-1.36.41a5.07,5.07,0,0,0-1.23.54l-1.22.41a5.79,5.79,0,0,0-1.36.55l-1.23.41a8.64,8.64,0,0,0-1.36.54l-1.23.41a4.75,4.75,0,0,0-1.23.55c-.41.13-1,.27-1.37.41a4.8,4.8,0,0,0-1.22.54l-1.23.41a5.55,5.55,0,0,0-1.36.55l-1.23.41a4.71,4.71,0,0,0-1.23.54c-.54.14-.95.27-1.36.41a5.07,5.07,0,0,0-1.23.54c-.41.14-.82.28-1.36.41l-1.23.41a4.7,4.7,0,0,1-1.22.55c-.41.13-1,.27-1.37.41a4.51,4.51,0,0,1-1.22.54l-1.23.41a6,6,0,0,1-1.36.55l-1.23.41a4,4,0,0,1-1.37.54l-1.22.41a5.12,5.12,0,0,1-1.23.55l-1.36.4a4.75,4.75,0,0,1-1.23.55l-1.23.41a5.36,5.36,0,0,1-1.36.54l-1.23.41a4.85,4.85,0,0,1-1.22.55c-.55.14-1,.27-1.37.41a4.8,4.8,0,0,1-1.22.54,13.65,13.65,0,0,1-1.37.41,5.23,5.23,0,0,1-1.22.55l-1.23.41A5.51,5.51,0,0,1,873,863l-1.23.41a5.12,5.12,0,0,1-1.23.55c-.41.13-.95.27-1.36.41a5.07,5.07,0,0,1-1.23.54c-.41.14-.82.27-1.36.41s-.82.27-1.23.54l-1.23.41c-.4.28-.95.28-1.36.55l-1.23.41c-.41.27-.82.27-1.22.54s-1,.28-1.37.41-.82.28-1.23.55l-1.22.41a5.57,5.57,0,0,0-1.37.54l-1.22.41a9.28,9.28,0,0,0-1.37.55l-1.22.41a4.71,4.71,0,0,0-1.23.54c-.41.14-1,.27-1.36.41a4.75,4.75,0,0,0-1.23.55l-1.23.4a6,6,0,0,0-1.36.55l-1.23.41a5,5,0,0,0-1.22.54c-.55.14-1,.28-1.37.41a4.89,4.89,0,0,0-1.22.55c-.41.14-1,.27-1.37.41a4.71,4.71,0,0,0-1.23.54l-1.22.41a5.61,5.61,0,0,0-1.37.55l-1.22.41a4.71,4.71,0,0,0-1.23.54c-.41.14-1,.27-1.36.41a4.75,4.75,0,0,0-1.23.55c-.41.13-.82.27-1.36.41l-1.23.4a4.75,4.75,0,0,1-1.23.55c-.41.14-1,.27-1.36.41a4.71,4.71,0,0,1-1.23.54l-1.22.41a5.61,5.61,0,0,1-1.37.55l-1.22.41a4.71,4.71,0,0,1-1.23.54c-.55.14-1,.28-1.37.41a5.05,5.05,0,0,1-1.22.55c-.41.13-.82.27-1.37.41a149.28,149.28,0,0,1-59,12,151.44,151.44,0,0,1-57.67-291.49,4.51,4.51,0,0,0,1.22-.54,13.65,13.65,0,0,1,1.37-.41,5.05,5.05,0,0,0,1.22-.55l1.23-.41a5.36,5.36,0,0,0,1.36-.54l1.23-.41a4.75,4.75,0,0,0,1.23-.55c.41-.13,1-.27,1.36-.41l1.23-.4a4.75,4.75,0,0,1,1.23-.55c.54-.14.95-.27,1.36-.41a4.71,4.71,0,0,1,1.23-.54,13.4,13.4,0,0,1,1.36-.41,4.75,4.75,0,0,1,1.23-.55l1.23-.41a5.36,5.36,0,0,1,1.36-.54l1.23-.41a4.89,4.89,0,0,1,1.22-.55c.41-.13,1-.27,1.37-.41a4.51,4.51,0,0,1,1.22-.54l1.23-.41a9.93,9.93,0,0,1,1.36-.55l1.23-.4a5.55,5.55,0,0,1,1.36-.55l1.23-.41a4.71,4.71,0,0,1,1.23-.54c.41-.14,1-.28,1.36-.41a4.75,4.75,0,0,1,1.23-.55l1.23-.41a8.64,8.64,0,0,1,1.36-.54l1.23-.41a4.17,4.17,0,0,1,1.36-.55l1.23-.41a4.8,4.8,0,0,1,1.22-.54c.41-.14,1-.28,1.37-.41s.81-.27,1.22-.55l1.23-.41c.41-.27.95-.27,1.36-.54l1.23-.41c.41-.27.82-.27,1.23-.55.54-.13,1-.27,1.36-.4a5.12,5.12,0,0,0,1.23-.55c.41-.14,1-.27,1.36-.41a5.07,5.07,0,0,0,1.23-.54l1.23-.41a6.16,6.16,0,0,0,1.36-.55l1.23-.41a4.65,4.65,0,0,0,1.22-.54c.41-.14,1-.28,1.37-.41a4.55,4.55,0,0,0,1.22-.55c.41-.13.82-.27,1.37-.41a4.51,4.51,0,0,0,1.22-.54l1.23-.41a5.39,5.39,0,0,0,1.36-.55l1.23-.4a5.12,5.12,0,0,0,1.23-.55c.41-.14,1-.27,1.36-.41a5.07,5.07,0,0,0,1.23-.54l1.23-.41a4.26,4.26,0,0,0,1.36-.55l1.23-.41c.4-.13,1-.27,1.36-.41a4.71,4.71,0,0,1,1.23-.54l1.22-.41a6,6,0,0,1,1.37-.55l1.22-.41a5.25,5.25,0,0,1,1.23-.54c.41-.14,1-.27,1.37-.41a5.05,5.05,0,0,1,1.22-.55c.41-.13.82-.27,1.37-.4a4.55,4.55,0,0,1,1.22-.55l1.23-.41a5.51,5.51,0,0,1,1.36-.54l1.23-.41a4.75,4.75,0,0,1,1.23-.55c.41-.13,1-.27,1.36-.41a4.71,4.71,0,0,1,1.23-.54l1.22-.41a10.53,10.53,0,0,1,1.37-.55l1.22-.41a4,4,0,0,1,1.37-.54l1.22-.41a5.3,5.3,0,0,1,1.23-.55c.41-.13,1-.27,1.37-.4a4.7,4.7,0,0,1,1.22-.55l1.23-.41a5.51,5.51,0,0,1,1.36-.54l1.23-.41a12.33,12.33,0,0,1,1.36-.55l1.23-.41c.41-.27.82-.27,1.23-.54s.95-.28,1.36-.41.82-.27,1.23-.55l1.23-.41c.4-.27,1-.27,1.36-.54l1.22-.41c.41-.27.82-.27,1.23-.55.41-.13,1-.27,1.36-.41a4.57,4.57,0,0,0,1.23-.54c.41-.14.82-.27,1.37-.41a4.91,4.91,0,0,0,1.23-.55l1.22-.4a6,6,0,0,0,1.37-.55l1.22-.41a5.07,5.07,0,0,0,1.23-.54c.41-.14.95-.28,1.36-.41a5.12,5.12,0,0,0,1.23-.55l1.23-.41a4,4,0,0,0,1.36-.54l1.23-.41a5.55,5.55,0,0,0,1.36-.55l1.23-.41a4.8,4.8,0,0,0,1.22-.54c.41-.14,1-.27,1.37-.41a4.7,4.7,0,0,0,1.22-.55l1.23-.4a6.23,6.23,0,0,0,1.37-.55l1.22-.41c.41-.14.82-.27,1.37-.41a4.51,4.51,0,0,1,1.22-.54l1.23-.41a5.55,5.55,0,0,1,1.36-.55l1.23-.41a4.71,4.71,0,0,1,1.23-.54c.41-.14.95-.27,1.36-.41a5.12,5.12,0,0,1,1.23-.55l1.22-.41a9.1,9.1,0,0,1,1.37-.54l1.22-.41a4.23,4.23,0,0,1,1.37-.55l1.22-.4a4.75,4.75,0,0,1,1.23-.55c.41-.14,1-.27,1.37-.41a4.51,4.51,0,0,1,1.22-.54l1.23-.41a5.71,5.71,0,0,1,1.36-.55l1.23-.41a4.71,4.71,0,0,1,1.23-.54c.54-.14.95-.28,1.36-.41a5.12,5.12,0,0,1,1.23-.55c.41-.13,1-.27,1.36-.41a4.71,4.71,0,0,1,1.23-.54l1.23-.41a6,6,0,0,1,1.36-.55l1.23-.41c.4-.27.81-.27,1.22-.54s1-.27,1.36-.41.82-.27,1.23-.54a13.65,13.65,0,0,1,1.37-.41c.4-.28.81-.28,1.22-.55l1.23-.41c.41-.27,1-.27,1.36-.54l1.23-.41a5.12,5.12,0,0,0,1.23-.55c.4-.13,1-.27,1.36-.41a4.71,4.71,0,0,0,1.23-.54c.41-.14.82-.27,1.36-.41a4.75,4.75,0,0,0,1.23-.55l1.23-.41a5.51,5.51,0,0,0,1.36-.54l1.23-.41a4.7,4.7,0,0,0,1.22-.55c.41-.13,1-.27,1.37-.4a5.05,5.05,0,0,0,1.22-.55l1.23-.41a4.25,4.25,0,0,0,1.36-.54l1.23-.41a9.93,9.93,0,0,0,1.36-.55l1.23-.41a4.71,4.71,0,0,0,1.23-.54c.41-.14.95-.28,1.36-.41a4.75,4.75,0,0,0,1.23-.55l1.22-.41c.41-.13,1-.27,1.37-.41A5.07,5.07,0,0,1,921,522l1.22-.41a9.1,9.1,0,0,1,1.37-.54l1.23-.41a5.39,5.39,0,0,1,1.36-.55l1.22-.41a4.71,4.71,0,0,1,1.23-.54c.41-.14,1-.28,1.36-.41a4.75,4.75,0,0,1,1.23-.55l1.23-.41a5.51,5.51,0,0,1,1.36-.54l1.23-.41a4.26,4.26,0,0,1,1.36-.55l1.23-.41a4.71,4.71,0,0,1,1.23-.54c.4-.14,1-.27,1.36-.41a5.12,5.12,0,0,1,1.23-.55l1.22-.4a5.61,5.61,0,0,1,1.37-.55l1.23-.41a4.51,4.51,0,0,1,1.22-.54c.55-.14,1-.28,1.37-.41a4.55,4.55,0,0,1,1.22-.55c.41-.14.82-.27,1.37-.41a4.51,4.51,0,0,1,1.22-.54l1.23-.41c.41-.27,1-.27,1.36-.55l1.23-.41c.41-.27.82-.27,1.23-.54s.95-.27,1.36-.41.82-.27,1.23-.55c.41-.13.81-.27,1.36-.41s.82-.27,1.23-.54l1.22-.41a6,6,0,0,0,1.37-.54l1.23-.41a5.23,5.23,0,0,0,1.22-.55c.41-.14,1-.27,1.37-.41a4.51,4.51,0,0,0,1.22-.54l1.23-.41a6,6,0,0,0,1.36-.55l1.23-.41a8.64,8.64,0,0,0,1.36-.54l1.23-.41a4.75,4.75,0,0,0,1.23-.55c.41-.13,1-.27,1.36-.41a4.71,4.71,0,0,0,1.23-.54l1.22-.41a5.61,5.61,0,0,0,1.37-.55l1.22-.4a5.12,5.12,0,0,0,1.23-.55c.55-.14,1-.27,1.37-.41a5.18,5.18,0,0,0,1.22-.54c.41-.14,1-.28,1.37-.41a4.89,4.89,0,0,0,1.22-.55l1.23-.41c.41-.13,1-.27,1.36-.41a4.71,4.71,0,0,1,1.23-.54l1.23-.41a6,6,0,0,1,1.36-.55l1.23-.41a4.25,4.25,0,0,1,1.36-.54l1.23-.41a5.12,5.12,0,0,1,1.23-.55l1.36-.4A4.75,4.75,0,0,1,1004,491l1.22-.41a5.57,5.57,0,0,1,1.37-.54l1.22-.41a4.75,4.75,0,0,1,1.23-.55c.55-.14,1-.27,1.36-.41a4.71,4.71,0,0,1,1.23-.54c.41-.14,1-.28,1.37-.41a5.05,5.05,0,0,1,1.22-.55l1.23-.41a5.93,5.93,0,0,1,1.36-.54l1.23-.41a5.12,5.12,0,0,1,1.23-.55c.41-.13,1-.27,1.36-.41s.82-.27,1.23-.54.82-.27,1.36-.41.82-.27,1.23-.54l1.22-.41c.41-.28,1-.28,1.37-.55l1.22-.41c.41-.27.82-.27,1.23-.54s1-.28,1.36-.41.82-.27,1.23-.55l1.23-.41a4,4,0,0,0,1.36-.54l1.23-.41a8.8,8.8,0,0,0,1.36-.55l1.23-.41a4.71,4.71,0,0,0,1.23-.54c.41-.14,1-.27,1.36-.41a5.07,5.07,0,0,0,1.23-.54l1.23-.41a6.16,6.16,0,0,0,1.36-.55l1.23-.41a4.8,4.8,0,0,0,1.22-.54c.55-.14,1-.28,1.36-.41a5.12,5.12,0,0,0,1.23-.55c.41-.13,1-.27,1.36-.41a4.71,4.71,0,0,0,1.23-.54l1.23-.41a5.55,5.55,0,0,0,1.36-.55l1.23-.41a4.71,4.71,0,0,0,1.23-.54c.41-.14,1-.27,1.36-.41a4.75,4.75,0,0,0,1.23-.55c.41-.13.82-.27,1.36-.4l1.23-.41a4.75,4.75,0,0,1,1.23-.55c.41-.14,1-.27,1.36-.41a4.71,4.71,0,0,1,1.23-.54l1.22-.41a5.61,5.61,0,0,1,1.37-.55l1.22-.41a4.71,4.71,0,0,1,1.23-.54c.54-.14.95-.27,1.36-.41a5.12,5.12,0,0,1,1.23-.55c.41-.13.82-.27,1.36-.41a5.07,5.07,0,0,1,1.23-.54c.41-.14.68-.27,1.09-.41a419,419,0,0,1,82.49,129.79C1189.59,665.67,1265.67,706.71,1340.52,688.71Z" transform="translate(-44.6 -24.79)"/><path d="M1457.24,540.07a151.28,151.28,0,0,1-93.8,140,4.71,4.71,0,0,1-1.23.54L1361,681c-.41.27-1,.27-1.37.55l-1.22.4c-.41.28-.82.28-1.23.55s-1,.27-1.36.41-.82.27-1.23.55l-1.23.4c-.55.28-.95.28-1.36.55l-1.23.41a8.64,8.64,0,0,0-1.36.54l-1.23.41a5.12,5.12,0,0,0-1.23.55c-.41.13-1,.27-1.36.41a4.71,4.71,0,0,0-1.23.54l-1.23.41a5.71,5.71,0,0,0-1.36.55,2.23,2.23,0,0,1-1.23.41c-74.84,18-150.92-23-180.1-95.44A419.31,419.31,0,0,0,1078,463.44h.13a6,6,0,0,1,1.37-.54l1.22-.41a4.71,4.71,0,0,1,1.23-.54c.41-.14,1-.28,1.36-.41a4.91,4.91,0,0,1,1.23-.55c.41-.14.82-.27,1.37-.41a4.51,4.51,0,0,1,1.22-.54l1.23-.41a5.55,5.55,0,0,1,1.36-.55l1.23-.41a4.71,4.71,0,0,1,1.23-.54c.41-.14.95-.27,1.36-.41s.82-.27,1.23-.55l1.22-.41a14,14,0,0,0,1.37-.54l1.22-.41c.41-.27.82-.27,1.37-.55l1.22-.4c.41-.28.82-.28,1.23-.55s1-.27,1.36-.41a4.91,4.91,0,0,0,1.23-.54l1.23-.41a6,6,0,0,0,1.36-.55l1.23-.41a4.71,4.71,0,0,0,1.23-.54c.54-.14,1-.28,1.36-.41a4.75,4.75,0,0,0,1.23-.55c.41-.13,1-.27,1.36-.41a4.71,4.71,0,0,0,1.23-.54l1.23-.41a5.71,5.71,0,0,0,1.36-.55l1.22-.41a4.71,4.71,0,0,0,1.23-.54c.55-.14,1-.27,1.36-.41a5.07,5.07,0,0,0,1.23-.54c.41-.14.82-.28,1.36-.41a5,5,0,0,0,1.23-.55l1.23-.41a5.73,5.73,0,0,0,1.37-.54l1.22-.41a5.12,5.12,0,0,0,1.23-.55c.41-.13,1-.27,1.36-.41L1133,443a4,4,0,0,1,1.36-.54l1.23-.41a5.12,5.12,0,0,1,1.23-.55l1.36-.4a4.75,4.75,0,0,1,1.23-.55l1.22-.41a5.57,5.57,0,0,1,1.37-.54l1.22-.41a4.75,4.75,0,0,1,1.23-.55c.41-.14,1-.27,1.36-.41a4.71,4.71,0,0,1,1.23-.54,13.65,13.65,0,0,1,1.37-.41,4.89,4.89,0,0,1,1.22-.55l1.23-.41a5.51,5.51,0,0,1,1.36-.54l1.23-.41a5.12,5.12,0,0,1,1.23-.55c.4-.13,1-.27,1.36-.41a5.07,5.07,0,0,1,1.23-.54l1.22-.41a9.1,9.1,0,0,1,1.37-.54l1.22-.41a5.61,5.61,0,0,1,1.37-.55l1.22-.41c.41-.27.82-.27,1.23-.54s1-.28,1.36-.41.82-.28,1.23-.55l1.23-.41c.41-.27,1-.27,1.36-.54l1.23-.41c.41-.27.82-.27,1.36-.55l1.23-.41a4.71,4.71,0,0,0,1.23-.54c.4-.14.95-.27,1.36-.41a4.75,4.75,0,0,0,1.23-.55l1.22-.4a6,6,0,0,0,1.37-.55l1.23-.41a5.18,5.18,0,0,0,1.22-.54c.55-.14,1-.28,1.36-.41a5.12,5.12,0,0,0,1.23-.55c.41-.14.82-.27,1.36-.41a4.71,4.71,0,0,0,1.23-.54l1.23-.41a5.55,5.55,0,0,0,1.36-.55l1.23-.41a4.71,4.71,0,0,0,1.23-.54c.4-.14,1-.27,1.36-.41a4.75,4.75,0,0,0,1.23-.55c.4-.13.81-.27,1.36-.41a4.71,4.71,0,0,0,1.23-.54l1.22-.41a6,6,0,0,0,1.37-.54l1.23-.41,1.22-.41a5.61,5.61,0,0,1,1.37-.55l1.22-.41a4.71,4.71,0,0,1,1.23-.54c.41-.14,1-.28,1.36-.41a5.12,5.12,0,0,1,1.23-.55c.41-.13.82-.27,1.36-.41a5.07,5.07,0,0,1,1.23-.54l1.23-.41a6,6,0,0,1,1.36-.55l1.23-.41a5,5,0,0,1,1.22-.54c.41-.14,1-.27,1.37-.41a4.8,4.8,0,0,1,1.22-.54l1.23-.41a9.28,9.28,0,0,1,1.37-.55l1.22-.41a5.57,5.57,0,0,1,1.37-.54l1.22-.41a4.75,4.75,0,0,1,1.23-.55c.41-.13,1-.27,1.36-.41a4.71,4.71,0,0,1,1.23-.54l1.23-.41a6,6,0,0,1,1.36-.55l1.23-.41c.41-.27.82-.27,1.36-.54l1.23-.41c.41-.27.82-.27,1.23-.55s1-.27,1.36-.4.82-.28,1.22-.55l1.23-.41c.41-.27,1-.27,1.37-.54l1.22-.41a5.12,5.12,0,0,0,1.23-.55,13.65,13.65,0,0,0,1.37-.41,149.25,149.25,0,0,1,59-12,151.07,151.07,0,0,1,132.39,78.12v.13c3.54,8.32,6.95,16.77,10.22,25.23a170.17,170.17,0,0,1,6,19.49c.4,1.77.68,3.68,1.09,5.46A142.87,142.87,0,0,1,1457.24,540.07Z" transform="translate(-44.6 -24.79)"/><path d="M1268.12,1051.51c65.17,60.81,65.72,164.15,1.09,225.5-130.06,123.25-305.67,198.92-499,198.92C359.7,1475.93,29,1135.08,45.17,721,59.89,347.32,362.83,42.47,736.4,25.56c314.4-14.31,587.22,171.65,701.74,441.19a151.07,151.07,0,0,0-132.39-78.12,149.29,149.29,0,0,0-59,12c-.41.13-.82.27-1.37.41a4.51,4.51,0,0,1-1.22.54l-1.23.41c-.41.27-1,.27-1.36.55l-1.23.41c-.41.27-.82.27-1.23.54s-.95.27-1.36.41-.82.27-1.23.55l-1.22.4c-.55.28-1,.28-1.37.55l-1.22.41a6,6,0,0,0-1.37.54l-1.22.41a5.12,5.12,0,0,0-1.23.55c-.41.13-.95.27-1.36.41a4.71,4.71,0,0,0-1.23.54l-1.23.41a5.55,5.55,0,0,0-1.36.55l-1.23.41a8.64,8.64,0,0,0-1.36.54l-1.23.41a4.75,4.75,0,0,0-1.23.55c-.4.13-1,.27-1.36.4a5.12,5.12,0,0,0-1.23.55l-1.22.41a5.61,5.61,0,0,0-1.37.55l-1.23.4a5.23,5.23,0,0,0-1.22.55c-.55.14-1,.27-1.37.41a4.8,4.8,0,0,0-1.22.54c-.41.14-1,.28-1.36.41a5.12,5.12,0,0,0-1.23.55l-1.23.41a5.51,5.51,0,0,0-1.36.54l-1.23.41-1.23.41a6,6,0,0,1-1.36.55l-1.23.4a4.55,4.55,0,0,1-1.22.55c-.55.14-1,.27-1.37.41a4.8,4.8,0,0,1-1.22.54c-.41.14-1,.28-1.37.41a4.75,4.75,0,0,1-1.23.55l-1.22.41a5.57,5.57,0,0,1-1.37.54l-1.22.41a5.12,5.12,0,0,1-1.23.55,13.4,13.4,0,0,0-1.36.41,4.71,4.71,0,0,1-1.23.54c-.41.14-.82.27-1.36.41a5.12,5.12,0,0,1-1.23.55l-1.23.41a5.93,5.93,0,0,1-1.36.54l-1.23.41a4.8,4.8,0,0,1-1.22.54c-.41.14-1,.28-1.37.41a4.85,4.85,0,0,1-1.22.55l-1.23.41a14,14,0,0,0-1.37.54l-1.22.41c-.41.28-1,.28-1.37.55l-1.23.41c-.4.27-.81.27-1.22.54s-1,.28-1.36.41-.82.27-1.23.55l-1.23.41a5.51,5.51,0,0,0-1.36.54l-1.23.41a8.8,8.8,0,0,0-1.36.55l-1.23.4a5.12,5.12,0,0,0-1.23.55c-.4.14-1,.27-1.36.41a4.85,4.85,0,0,0-1.22.54l-1.23.41a6,6,0,0,0-1.37.55l-1.22.41a4.71,4.71,0,0,0-1.23.54c-.55.14-1,.28-1.37.41a4.85,4.85,0,0,0-1.22.55c-.41.13-1,.27-1.37.41a4.8,4.8,0,0,0-1.22.54l-1.23.41a5.55,5.55,0,0,0-1.36.55l-1.23.4a5.12,5.12,0,0,0-1.23.55c-.41.14-1,.27-1.36.41a4.75,4.75,0,0,0-1.23.55l-1.22.4a4.23,4.23,0,0,0-1.37.55l-1.22.41c-.41.13-1,.27-1.37.41a4.65,4.65,0,0,1-1.22.54l-1.23.41a6,6,0,0,1-1.37.55l-1.22.41a4.71,4.71,0,0,1-1.23.54c-.55.14-1,.27-1.36.41a5.12,5.12,0,0,1-1.23.55c-.41.13-.82.27-1.36.4a4.75,4.75,0,0,1-1.23.55l-1.23.41a5.51,5.51,0,0,1-1.36.54l-1.23.41a4.75,4.75,0,0,1-1.23.55c-.4.14-1,.27-1.36.41a4.8,4.8,0,0,1-1.22.54,13.65,13.65,0,0,1-1.37.41,5.05,5.05,0,0,1-1.22.55l-1.23.41a5.57,5.57,0,0,1-1.37.54l-1.22.41a5.12,5.12,0,0,1-1.23.55c-.41.13-1,.27-1.36.41s-.82.27-1.23.54l-1.23.41c-.54.27-1,.27-1.36.54l-1.23.41a12.33,12.33,0,0,1-1.36.55l-1.23.41c-.41.27-.82.27-1.23.54s-1,.28-1.36.41a5.12,5.12,0,0,0-1.23.55l-1.22.41a5.57,5.57,0,0,0-1.37.54l-1.22.41a4.75,4.75,0,0,0-1.23.55c-.54.13-.95.27-1.36.41a4.71,4.71,0,0,0-1.23.54c-.41.14-1,.27-1.36.41a4.75,4.75,0,0,0-1.23.55l-1.23.4a6,6,0,0,0-1.36.55h-.14C1001.17,381,891.69,329.32,770.08,329.32c-242.27,0-436.69,204.78-419.79,450.74,14.18,203.82,176.7,370.43,380.25,389.11,128.16,11.59,245.68-34.22,329.94-114.66a154.07,154.07,0,0,1,106.35-43.09A147.29,147.29,0,0,1,1268.12,1051.51Z" transform="translate(-44.6 -24.79)"/></svg>